<svg xmlns="http://www.w3.org/2000/svg" xmlns:xlink="http://www.w3.org/1999/xlink" width="500" zoomAndPan="magnify" viewBox="0 0 375 374.999991" height="500" preserveAspectRatio="xMidYMid meet" version="1.0"><defs><g/><clipPath id="68bdc0de5e"><path d="M 110.617188 92.941406 L 264.367188 92.941406 L 264.367188 246.691406 L 110.617188 246.691406 Z M 110.617188 92.941406 " clip-rule="nonzero"/></clipPath></defs><g clip-path="url(#68bdc0de5e)"><path fill="#0b859b" d="M 187.5 92.941406 C 145.039062 92.941406 110.617188 127.363281 110.617188 169.820312 C 110.617188 212.277344 145.039062 246.703125 187.5 246.703125 C 229.957031 246.703125 264.378906 212.277344 264.378906 169.820312 C 264.378906 127.363281 229.957031 92.941406 187.5 92.941406 Z M 217.820312 196.667969 C 215.175781 200.695312 211.433594 203.792969 206.6875 205.882812 C 201.882812 207.996094 195.710938 209.058594 188.351562 209.058594 C 175.453125 209.058594 166.433594 206.589844 161.566406 201.710938 C 156.695312 196.832031 154.113281 191.070312 153.304688 183.957031 L 174.195312 182.644531 C 174.757812 186.078125 175.792969 188.785156 177.289062 190.691406 C 179.964844 194.09375 183.808594 195.816406 188.71875 195.816406 C 192.390625 195.816406 195.289062 194.914062 197.332031 193.152344 C 199.410156 191.347656 200.476562 189.195312 200.476562 186.773438 C 200.476562 184.355469 199.472656 182.386719 197.484375 180.59375 C 195.558594 178.863281 191.375 177.304688 184.691406 175.835938 C 174.359375 173.511719 166.917969 170.414062 162.570312 166.613281 C 158.234375 162.851562 156.121094 158.1875 156.121094 152.351562 C 156.121094 148.570312 157.238281 144.941406 159.433594 141.570312 C 161.625 138.195312 165 135.5 169.449219 133.554688 C 173.949219 131.585938 180.253906 130.582031 188.1875 130.582031 C 197.875 130.582031 205.324219 132.382812 210.347656 135.941406 C 215.0625 139.285156 218.007812 144.625 219.09375 151.808594 L 198.417969 153.019531 C 197.710938 149.730469 196.375 147.257812 194.4375 145.660156 C 192.328125 143.917969 189.417969 143.035156 185.789062 143.035156 C 182.753906 143.035156 180.40625 143.710938 178.808594 145.054688 C 177.15625 146.4375 176.316406 148.160156 176.316406 150.167969 C 176.316406 151.71875 177.023438 153.113281 178.425781 154.300781 C 179.6875 155.4375 182.488281 156.464844 186.957031 157.386719 C 197.332031 159.621094 204.84375 161.90625 209.304688 164.171875 C 213.660156 166.398438 216.859375 169.164062 218.824219 172.425781 C 220.792969 175.683594 221.789062 179.382812 221.789062 183.421875 C 221.789062 188.191406 220.457031 192.648438 217.8125 196.667969 Z M 217.820312 196.667969 " fill-opacity="1" fill-rule="nonzero"/></g><g fill="#003a44" fill-opacity="1"><g transform="translate(110.641978, 269.376108)"><g><path d="M 0.554688 0 L 4.449219 0 L 4.691406 -1.710938 C 5.539062 -0.710938 7.09375 0.332031 9.339844 0.332031 C 11.988281 0.332031 15.234375 -0.910156 15.234375 -4.382812 C 15.234375 -9.605469 6.425781 -9.074219 6.425781 -11.363281 C 6.425781 -12.140625 7.316406 -12.542969 7.960938 -12.542969 C 9.519531 -12.542969 10.808594 -11.609375 10.808594 -9.964844 L 14.832031 -9.964844 L 14.832031 -15.542969 L 11.007812 -15.542969 L 10.785156 -13.675781 C 9.894531 -15.34375 8.007812 -15.945312 6.136719 -15.945312 C 3.957031 -15.945312 0.84375 -14.457031 0.84375 -11.164062 C 0.84375 -5.492188 9.382812 -6.226562 9.382812 -4.492188 C 9.382812 -3.558594 8.273438 -3.378906 7.496094 -3.378906 C 6.558594 -3.425781 4.691406 -3.734375 4.691406 -5.605469 L 0.554688 -5.605469 Z M 0.554688 0 "/></g></g></g><g fill="#003a44" fill-opacity="1"><g transform="translate(126.426438, 269.376108)"><g><path d="M 11.273438 -6.09375 L 11.273438 -11.121094 L 8.652344 -11.121094 L 8.273438 -10.050781 C 7.894531 -10.496094 7.003906 -11.320312 5.492188 -11.320312 C 2.644531 -11.320312 0.0234375 -9.5625 0.0234375 -5.625 C 0.0234375 -1.667969 2.867188 0.3125 6.136719 0.3125 C 8.539062 0.3125 10.542969 -0.824219 11.585938 -1.957031 L 9.628906 -4.226562 C 8.894531 -3.425781 8.117188 -2.933594 6.9375 -2.957031 C 5.515625 -2.980469 4.648438 -4.136719 4.648438 -5.582031 C 4.648438 -7.027344 5.292969 -8.429688 6.605469 -8.429688 C 7.628906 -8.429688 7.960938 -7.160156 8.007812 -6.09375 Z M 11.273438 -6.09375 "/></g></g></g><g fill="#003a44" fill-opacity="1"><g transform="translate(138.231437, 269.376108)"><g><path d="M 7.539062 0 L 7.539062 -2.914062 L 5.9375 -2.914062 L 5.9375 -6.050781 C 5.9375 -7.003906 6.203125 -8.117188 7.339844 -8.117188 C 8.652344 -8.117188 8.652344 -6.804688 8.652344 -6.050781 L 8.652344 0 L 14.367188 0 L 14.367188 -2.914062 L 13.320312 -2.914062 L 13.320312 -6.628906 C 13.320312 -8.960938 12.875 -11.519531 9.429688 -11.519531 C 7.804688 -11.519531 6.183594 -10.140625 5.9375 -9.742188 L 5.9375 -16.679688 L 0.554688 -16.679688 L 0.554688 -13.789062 L 1.488281 -13.789062 L 1.488281 -2.914062 L 0.554688 -2.914062 L 0.554688 0 Z M 7.539062 0 "/></g></g></g><g fill="#003a44" fill-opacity="1"><g transform="translate(152.926551, 269.376108)"><g><path d="M 6.449219 0.289062 C 9.828125 0.289062 12.566406 -1.824219 12.519531 -5.515625 C 12.453125 -9.230469 9.851562 -11.339844 6.339844 -11.386719 C 3.269531 -11.386719 0.265625 -9.316406 0.246094 -5.605469 C 0.199219 -1.667969 3.269531 0.289062 6.449219 0.289062 Z M 6.449219 -2.558594 C 5.515625 -2.558594 4.804688 -3.757812 4.804688 -5.582031 C 4.804688 -7.207031 5.472656 -8.496094 6.339844 -8.496094 C 7.382812 -8.472656 7.960938 -7.183594 7.960938 -5.515625 C 7.960938 -3.847656 7.40625 -2.558594 6.449219 -2.558594 Z M 6.449219 -2.558594 "/></g></g></g><g fill="#003a44" fill-opacity="1"><g transform="translate(165.687511, 269.376108)"><g><path d="M 7.050781 0 L 7.050781 -2.914062 L 5.738281 -2.914062 L 5.738281 -16.679688 L 0.578125 -16.679688 L 0.578125 -13.808594 L 1.511719 -13.808594 L 1.511719 -2.914062 L 0.554688 -2.914062 L 0.554688 0 Z M 7.050781 0 "/></g></g></g><g fill="#003a44" fill-opacity="1"><g transform="translate(173.068418, 269.376108)"><g><path d="M 1.734375 -7.605469 C 2.578125 -8.074219 3.734375 -8.628906 5.046875 -8.628906 C 6.25 -8.628906 7.160156 -8.382812 7.160156 -7.382812 L 7.160156 -6.605469 C 7.050781 -6.738281 6.269531 -7.382812 4.960938 -7.382812 C 2.445312 -7.382812 0.332031 -5.804688 0.332031 -3.292969 C 0.332031 -0.710938 2.601562 0.421875 4.714844 0.421875 C 5.515625 0.421875 6.894531 0.132812 7.71875 -1 L 8.25 0 L 13.007812 0 L 13.007812 -2.847656 L 11.675781 -2.847656 L 11.675781 -7.183594 C 11.675781 -10.761719 8.316406 -11.765625 5.648438 -11.765625 C 3.601562 -11.765625 1.691406 -10.71875 0.800781 -10.183594 Z M 7.160156 -3.203125 C 6.960938 -2.867188 6.40625 -2.46875 5.738281 -2.46875 C 5.070312 -2.46875 4.558594 -2.890625 4.558594 -3.515625 C 4.558594 -4.203125 4.960938 -4.691406 5.847656 -4.691406 C 6.78125 -4.691406 7.09375 -4.160156 7.160156 -4.046875 Z M 7.160156 -3.203125 "/></g></g></g><g fill="#003a44" fill-opacity="1"><g transform="translate(186.407405, 269.376108)"><g><path d="M 6.847656 0 L 6.847656 -2.914062 L 5.738281 -2.914062 L 5.738281 -5.203125 C 5.738281 -7.160156 6.871094 -7.671875 8.875 -7.671875 L 8.875 -11.675781 C 6.582031 -11.675781 6.003906 -10.761719 5.425781 -9.695312 L 4.757812 -11.121094 L 0.578125 -11.121094 L 0.578125 -8.226562 L 1.535156 -8.226562 L 1.535156 -2.914062 L 0.554688 -2.914062 L 0.554688 0 Z M 6.847656 0 "/></g></g></g><g fill="#003a44" fill-opacity="1"><g transform="translate(195.611302, 269.376108)"><g/></g></g><g fill="#003a44" fill-opacity="1"><g transform="translate(201.169217, 269.376108)"><g><path d="M 0.554688 0 L 4.449219 0 L 4.691406 -1.710938 C 5.539062 -0.710938 7.09375 0.332031 9.339844 0.332031 C 11.988281 0.332031 15.234375 -0.910156 15.234375 -4.382812 C 15.234375 -9.605469 6.425781 -9.074219 6.425781 -11.363281 C 6.425781 -12.140625 7.316406 -12.542969 7.960938 -12.542969 C 9.519531 -12.542969 10.808594 -11.609375 10.808594 -9.964844 L 14.832031 -9.964844 L 14.832031 -15.542969 L 11.007812 -15.542969 L 10.785156 -13.675781 C 9.894531 -15.34375 8.007812 -15.945312 6.136719 -15.945312 C 3.957031 -15.945312 0.84375 -14.457031 0.84375 -11.164062 C 0.84375 -5.492188 9.382812 -6.226562 9.382812 -4.492188 C 9.382812 -3.558594 8.273438 -3.378906 7.496094 -3.378906 C 6.558594 -3.425781 4.691406 -3.734375 4.691406 -5.605469 L 0.554688 -5.605469 Z M 0.554688 0 "/></g></g></g><g fill="#003a44" fill-opacity="1"><g transform="translate(216.953677, 269.376108)"><g><path d="M 0.332031 -11.121094 L 0.332031 -8.226562 L 1.535156 -8.226562 L 1.535156 -4.269531 C 1.601562 -1.421875 1.710938 0.398438 5.046875 0.398438 C 5.558594 0.398438 7.070312 0.246094 7.738281 -0.0234375 L 7.738281 -2.867188 C 7.316406 -2.691406 6.628906 -2.492188 6.339844 -2.492188 C 5.472656 -2.492188 5.625 -3.515625 5.625 -4.269531 L 5.625 -8.226562 L 7.738281 -8.226562 L 7.738281 -11.121094 L 5.625 -11.121094 L 5.625 -14.476562 L 1.535156 -13.164062 L 1.535156 -11.121094 Z M 0.332031 -11.121094 "/></g></g></g><g fill="#003a44" fill-opacity="1"><g transform="translate(225.023763, 269.376108)"><g><path d="M 1.734375 -7.605469 C 2.578125 -8.074219 3.734375 -8.628906 5.046875 -8.628906 C 6.25 -8.628906 7.160156 -8.382812 7.160156 -7.382812 L 7.160156 -6.605469 C 7.050781 -6.738281 6.269531 -7.382812 4.960938 -7.382812 C 2.445312 -7.382812 0.332031 -5.804688 0.332031 -3.292969 C 0.332031 -0.710938 2.601562 0.421875 4.714844 0.421875 C 5.515625 0.421875 6.894531 0.132812 7.71875 -1 L 8.25 0 L 13.007812 0 L 13.007812 -2.847656 L 11.675781 -2.847656 L 11.675781 -7.183594 C 11.675781 -10.761719 8.316406 -11.765625 5.648438 -11.765625 C 3.601562 -11.765625 1.691406 -10.71875 0.800781 -10.183594 Z M 7.160156 -3.203125 C 6.960938 -2.867188 6.40625 -2.46875 5.738281 -2.46875 C 5.070312 -2.46875 4.558594 -2.890625 4.558594 -3.515625 C 4.558594 -4.203125 4.960938 -4.691406 5.847656 -4.691406 C 6.78125 -4.691406 7.09375 -4.160156 7.160156 -4.046875 Z M 7.160156 -3.203125 "/></g></g></g><g fill="#003a44" fill-opacity="1"><g transform="translate(238.36275, 269.376108)"><g><path d="M 0.332031 0 L 3.113281 0 L 3.3125 -1.355469 C 3.847656 -0.511719 5.113281 0.265625 6.714844 0.265625 C 8.875 0.265625 10.851562 -0.976562 10.851562 -3.070312 C 10.851562 -5.402344 8.960938 -6.050781 7.273438 -6.628906 C 5.847656 -7.117188 4.535156 -7.382812 4.535156 -8.007812 C 4.535156 -8.5625 4.9375 -8.804688 5.402344 -8.804688 C 6.515625 -8.804688 7.671875 -8.050781 7.671875 -7.117188 L 10.5625 -7.117188 L 10.5625 -11.121094 L 7.828125 -11.121094 L 7.648438 -9.652344 C 7.183594 -10.609375 5.847656 -11.386719 4.335938 -11.386719 C 2.757812 -11.386719 0.421875 -10.429688 0.421875 -8.160156 C 0.421875 -6.070312 1.867188 -5.136719 3.378906 -4.601562 C 4.980469 -4.046875 6.648438 -3.9375 6.648438 -3.269531 C 6.648438 -2.644531 6.117188 -2.511719 5.671875 -2.511719 C 5.003906 -2.511719 3.3125 -2.824219 3.3125 -4.003906 L 0.332031 -4.003906 Z M 0.332031 0 "/></g></g></g><g fill="#003a44" fill-opacity="1"><g transform="translate(249.656419, 269.376108)"><g><path d="M 7.539062 0 L 7.539062 -2.914062 L 5.9375 -2.914062 L 5.9375 -6.050781 C 5.9375 -7.003906 6.203125 -8.117188 7.339844 -8.117188 C 8.652344 -8.117188 8.652344 -6.804688 8.652344 -6.050781 L 8.652344 0 L 14.367188 0 L 14.367188 -2.914062 L 13.320312 -2.914062 L 13.320312 -6.628906 C 13.320312 -8.960938 12.875 -11.519531 9.429688 -11.519531 C 7.804688 -11.519531 6.183594 -10.140625 5.9375 -9.742188 L 5.9375 -16.679688 L 0.554688 -16.679688 L 0.554688 -13.789062 L 1.488281 -13.789062 L 1.488281 -2.914062 L 0.554688 -2.914062 L 0.554688 0 Z M 7.539062 0 "/></g></g></g><g fill="#00d4fa" fill-opacity="1"><g transform="translate(134.812935, 278.886861)"><g><path d="M 2.308594 -0.769531 C 1.648438 -0.769531 1.640625 -1.476562 1.640625 -1.667969 L 1.640625 -3.878906 C 1.640625 -4.277344 1.714844 -4.777344 2.339844 -4.777344 C 2.878906 -4.777344 2.984375 -4.300781 3.007812 -4.023438 C 3.015625 -3.941406 3.078125 -3.878906 3.15625 -3.878906 L 4.09375 -3.878906 C 4.1875 -3.878906 4.261719 -3.960938 4.253906 -4.046875 C 4.195312 -4.855469 3.6875 -5.617188 2.324219 -5.617188 C 0.898438 -5.617188 0.398438 -4.886719 0.398438 -3.878906 C 0.398438 -3.539062 0.429688 -3.316406 0.429688 -2.777344 C 0.429688 -2.230469 0.398438 -2.007812 0.398438 -1.667969 C 0.398438 -0.800781 0.871094 0.0703125 2.324219 0.0703125 C 3.679688 0.0703125 4.195312 -0.578125 4.253906 -1.5 C 4.261719 -1.59375 4.1875 -1.667969 4.101562 -1.667969 L 3.214844 -1.667969 C 3.132812 -1.667969 3.070312 -1.601562 3.0625 -1.523438 C 3.03125 -1.160156 2.863281 -0.769531 2.308594 -0.769531 Z M 2.308594 -0.769531 "/></g></g></g><g fill="#00d4fa" fill-opacity="1"><g transform="translate(139.470157, 278.886861)"><g><path d="M 4.101562 -5.546875 L 3.179688 -5.546875 C 3.085938 -5.546875 3.015625 -5.472656 3.023438 -5.386719 C 3.03125 -5.09375 3.054688 -4.402344 3.054688 -3.347656 C 3.054688 -3.261719 2.992188 -3.1875 2.902344 -3.1875 L 1.753906 -3.1875 C 1.667969 -3.1875 1.59375 -3.261719 1.59375 -3.347656 C 1.601562 -4.402344 1.617188 -5.09375 1.625 -5.386719 C 1.632812 -5.472656 1.5625 -5.546875 1.476562 -5.546875 L 0.546875 -5.546875 C 0.460938 -5.546875 0.390625 -5.472656 0.398438 -5.386719 C 0.40625 -5.046875 0.429688 -4.15625 0.429688 -2.777344 C 0.429688 -1.394531 0.40625 -0.5 0.398438 -0.160156 C 0.390625 -0.0703125 0.460938 0.0078125 0.546875 0.0078125 L 1.476562 0.0078125 C 1.5625 0.0078125 1.632812 -0.0703125 1.625 -0.160156 C 1.617188 -0.453125 1.601562 -1.140625 1.59375 -2.199219 C 1.59375 -2.285156 1.667969 -2.355469 1.753906 -2.355469 L 2.902344 -2.355469 C 2.992188 -2.355469 3.054688 -2.285156 3.054688 -2.199219 C 3.054688 -1.140625 3.03125 -0.453125 3.023438 -0.160156 C 3.015625 -0.0703125 3.085938 0.0078125 3.179688 0.0078125 L 4.101562 0.0078125 C 4.1875 0.0078125 4.261719 -0.0703125 4.261719 -0.160156 C 4.246094 -0.5 4.222656 -1.394531 4.222656 -2.777344 C 4.222656 -4.15625 4.246094 -5.046875 4.261719 -5.386719 C 4.261719 -5.472656 4.1875 -5.546875 4.101562 -5.546875 Z M 4.101562 -5.546875 "/></g></g></g><g fill="#00d4fa" fill-opacity="1"><g transform="translate(144.135308, 278.886861)"><g><path d="M 3.792969 0 L 4.71875 0 C 4.824219 0 4.894531 -0.0859375 4.871094 -0.191406 C 4.785156 -0.554688 4.570312 -1.4375 4.292969 -2.777344 C 3.992188 -4.195312 3.824219 -5.101562 3.769531 -5.417969 C 3.753906 -5.5 3.6875 -5.546875 3.617188 -5.546875 L 1.617188 -5.546875 C 1.539062 -5.546875 1.476562 -5.5 1.460938 -5.417969 C 1.402344 -5.101562 1.246094 -4.195312 0.945312 -2.777344 C 0.660156 -1.4375 0.445312 -0.554688 0.355469 -0.191406 C 0.332031 -0.0859375 0.40625 0 0.507812 0 L 1.4375 0 C 1.515625 0 1.578125 -0.046875 1.59375 -0.125 C 1.617188 -0.269531 1.667969 -0.546875 1.746094 -0.945312 C 1.761719 -1.023438 1.824219 -1.070312 1.894531 -1.070312 L 3.332031 -1.070312 C 3.410156 -1.070312 3.476562 -1.023438 3.484375 -0.945312 C 3.5625 -0.546875 3.609375 -0.269531 3.640625 -0.125 C 3.648438 -0.046875 3.714844 0 3.792969 0 Z M 2.125 -1.910156 C 2.03125 -1.910156 1.953125 -2.007812 1.976562 -2.101562 C 2.015625 -2.308594 2.0625 -2.539062 2.117188 -2.777344 C 2.277344 -3.523438 2.410156 -4.132812 2.515625 -4.585938 C 2.539062 -4.6875 2.691406 -4.6875 2.722656 -4.585938 C 2.824219 -4.132812 2.960938 -3.523438 3.117188 -2.777344 C 3.164062 -2.539062 3.214844 -2.308594 3.261719 -2.101562 C 3.277344 -2.007812 3.207031 -1.910156 3.101562 -1.910156 Z M 2.125 -1.910156 "/></g></g></g><g fill="#00d4fa" fill-opacity="1"><g transform="translate(149.379637, 278.886861)"><g><path d="M 1.640625 -4.023438 C 1.640625 -4.417969 1.714844 -4.792969 2.339844 -4.792969 C 2.878906 -4.792969 2.984375 -4.308594 3.007812 -4.039062 C 3.015625 -3.949219 3.078125 -3.886719 3.15625 -3.886719 L 4.09375 -3.886719 C 4.1875 -3.886719 4.261719 -3.96875 4.253906 -4.0625 C 4.195312 -4.871094 3.6875 -5.632812 2.324219 -5.632812 C 0.898438 -5.632812 0.398438 -5.03125 0.398438 -4.023438 C 0.398438 -2.054688 3.0625 -2.539062 3.0625 -1.523438 C 3.0625 -1.125 3 -0.753906 2.363281 -0.753906 C 1.824219 -0.753906 1.65625 -1.230469 1.640625 -1.507812 C 1.632812 -1.59375 1.570312 -1.65625 1.484375 -1.65625 L 0.546875 -1.65625 C 0.460938 -1.65625 0.390625 -1.578125 0.398438 -1.484375 C 0.453125 -0.675781 1.023438 0.0859375 2.378906 0.0859375 C 3.816406 0.0859375 4.316406 -0.515625 4.316406 -1.523438 C 4.316406 -3.515625 1.640625 -3.03125 1.640625 -4.023438 Z M 1.640625 -4.023438 "/></g></g></g><g fill="#00d4fa" fill-opacity="1"><g transform="translate(154.100325, 278.886861)"><g><path d="M 4 -4.863281 L 4 -5.394531 C 4 -5.480469 3.925781 -5.546875 3.839844 -5.546875 L 0.546875 -5.546875 C 0.460938 -5.546875 0.390625 -5.472656 0.398438 -5.386719 C 0.40625 -5.046875 0.429688 -4.15625 0.429688 -2.777344 C 0.429688 -1.394531 0.40625 -0.5 0.398438 -0.160156 C 0.390625 -0.0703125 0.460938 0.0078125 0.546875 0.0078125 L 3.839844 0.0078125 C 3.925781 0.0078125 4 -0.0625 4 -0.152344 L 4 -0.683594 C 4 -0.769531 3.925781 -0.832031 3.839844 -0.832031 L 1.761719 -0.832031 C 1.683594 -0.832031 1.609375 -0.90625 1.609375 -0.992188 C 1.601562 -1.316406 1.59375 -1.714844 1.59375 -2.199219 C 1.59375 -2.285156 1.667969 -2.355469 1.753906 -2.355469 L 3.417969 -2.355469 C 3.507812 -2.355469 3.578125 -2.417969 3.578125 -2.507812 L 3.578125 -3.039062 C 3.578125 -3.125 3.507812 -3.1875 3.417969 -3.1875 L 1.753906 -3.1875 C 1.667969 -3.1875 1.59375 -3.261719 1.59375 -3.347656 C 1.59375 -3.832031 1.601562 -4.230469 1.609375 -4.554688 C 1.609375 -4.640625 1.683594 -4.710938 1.761719 -4.710938 L 3.839844 -4.710938 C 3.925781 -4.710938 4 -4.777344 4 -4.863281 Z M 4 -4.863281 "/></g></g></g><g fill="#00d4fa" fill-opacity="1"><g transform="translate(158.503661, 278.886861)"><g/></g></g><g fill="#00d4fa" fill-opacity="1"><g transform="translate(160.86797, 278.886861)"><g><path d="M 4.253906 -3.808594 C 4.253906 -3.808594 4.253906 -3.816406 4.253906 -3.816406 C 4.253906 -3.832031 4.253906 -3.847656 4.253906 -3.863281 C 4.238281 -4.710938 3.746094 -5.546875 2.324219 -5.546875 L 0.546875 -5.546875 C 0.460938 -5.546875 0.390625 -5.472656 0.398438 -5.386719 C 0.40625 -5.046875 0.429688 -4.15625 0.429688 -2.777344 C 0.429688 -1.394531 0.40625 -0.5 0.398438 -0.160156 C 0.390625 -0.0703125 0.460938 0.0078125 0.546875 0.0078125 L 2.324219 0.0078125 C 3.753906 0.0078125 4.253906 -0.644531 4.253906 -1.65625 C 4.253906 -1.992188 4.222656 -2.222656 4.222656 -2.761719 C 4.222656 -3.269531 4.253906 -3.5 4.253906 -3.808594 Z M 2.308594 -0.832031 L 1.761719 -0.832031 C 1.683594 -0.832031 1.609375 -0.90625 1.609375 -0.992188 C 1.601562 -1.4375 1.59375 -2.039062 1.59375 -2.777344 C 1.59375 -3.515625 1.601562 -4.109375 1.609375 -4.554688 C 1.609375 -4.640625 1.683594 -4.710938 1.761719 -4.710938 L 2.339844 -4.710938 C 3 -4.710938 3.007812 -4 3.007812 -3.808594 L 3.007812 -1.65625 C 3.007812 -1.253906 2.933594 -0.832031 2.308594 -0.832031 Z M 2.308594 -0.832031 "/></g></g></g><g fill="#00d4fa" fill-opacity="1"><g transform="translate(165.525191, 278.886861)"><g><path d="M 4.070312 0 C 4.164062 0 4.246094 -0.078125 4.230469 -0.175781 C 4.203125 -0.390625 4.164062 -0.808594 4.164062 -1.371094 C 4.164062 -1.96875 3.863281 -2.316406 3.460938 -2.515625 C 3.410156 -2.539062 3.410156 -2.601562 3.460938 -2.625 C 3.894531 -2.855469 4.203125 -3.261719 4.203125 -3.878906 C 4.203125 -5.246094 3.316406 -5.546875 2.277344 -5.546875 L 1.632812 -5.546875 L 1.632812 -5.554688 L 0.546875 -5.554688 C 0.460938 -5.554688 0.390625 -5.472656 0.398438 -5.386719 C 0.40625 -5.046875 0.429688 -4.15625 0.429688 -2.777344 C 0.429688 -1.394531 0.40625 -0.5 0.398438 -0.160156 C 0.390625 -0.0703125 0.460938 0 0.546875 0 L 1.476562 0 C 1.5625 0 1.632812 -0.0703125 1.625 -0.160156 C 1.617188 -0.429688 1.601562 -1.046875 1.59375 -1.976562 C 1.59375 -2.0625 1.667969 -2.132812 1.753906 -2.132812 L 2.246094 -2.132812 C 2.769531 -2.132812 2.910156 -1.730469 2.910156 -1.378906 L 2.910156 -0.152344 C 2.910156 -0.0625 2.984375 0 3.070312 0 Z M 2.292969 -4.710938 C 2.539062 -4.710938 2.960938 -4.523438 2.960938 -3.878906 C 2.960938 -3.523438 2.816406 -2.976562 2.292969 -2.976562 L 1.753906 -2.976562 C 1.667969 -2.976562 1.59375 -3.046875 1.59375 -3.132812 C 1.59375 -3.707031 1.601562 -4.179688 1.609375 -4.554688 C 1.609375 -4.640625 1.683594 -4.710938 1.769531 -4.710938 Z M 2.292969 -4.710938 "/></g></g></g><g fill="#00d4fa" fill-opacity="1"><g transform="translate(170.158614, 278.886861)"><g><path d="M 4 -4.863281 L 4 -5.394531 C 4 -5.480469 3.925781 -5.546875 3.839844 -5.546875 L 0.546875 -5.546875 C 0.460938 -5.546875 0.390625 -5.472656 0.398438 -5.386719 C 0.40625 -5.046875 0.429688 -4.15625 0.429688 -2.777344 C 0.429688 -1.394531 0.40625 -0.5 0.398438 -0.160156 C 0.390625 -0.0703125 0.460938 0.0078125 0.546875 0.0078125 L 3.839844 0.0078125 C 3.925781 0.0078125 4 -0.0625 4 -0.152344 L 4 -0.683594 C 4 -0.769531 3.925781 -0.832031 3.839844 -0.832031 L 1.761719 -0.832031 C 1.683594 -0.832031 1.609375 -0.90625 1.609375 -0.992188 C 1.601562 -1.316406 1.59375 -1.714844 1.59375 -2.199219 C 1.59375 -2.285156 1.667969 -2.355469 1.753906 -2.355469 L 3.417969 -2.355469 C 3.507812 -2.355469 3.578125 -2.417969 3.578125 -2.507812 L 3.578125 -3.039062 C 3.578125 -3.125 3.507812 -3.1875 3.417969 -3.1875 L 1.753906 -3.1875 C 1.667969 -3.1875 1.59375 -3.261719 1.59375 -3.347656 C 1.59375 -3.832031 1.601562 -4.230469 1.609375 -4.554688 C 1.609375 -4.640625 1.683594 -4.710938 1.761719 -4.710938 L 3.839844 -4.710938 C 3.925781 -4.710938 4 -4.777344 4 -4.863281 Z M 4 -4.863281 "/></g></g></g><g fill="#00d4fa" fill-opacity="1"><g transform="translate(174.56195, 278.886861)"><g><path d="M 3.792969 0 L 4.71875 0 C 4.824219 0 4.894531 -0.0859375 4.871094 -0.191406 C 4.785156 -0.554688 4.570312 -1.4375 4.292969 -2.777344 C 3.992188 -4.195312 3.824219 -5.101562 3.769531 -5.417969 C 3.753906 -5.5 3.6875 -5.546875 3.617188 -5.546875 L 1.617188 -5.546875 C 1.539062 -5.546875 1.476562 -5.5 1.460938 -5.417969 C 1.402344 -5.101562 1.246094 -4.195312 0.945312 -2.777344 C 0.660156 -1.4375 0.445312 -0.554688 0.355469 -0.191406 C 0.332031 -0.0859375 0.40625 0 0.507812 0 L 1.4375 0 C 1.515625 0 1.578125 -0.046875 1.59375 -0.125 C 1.617188 -0.269531 1.667969 -0.546875 1.746094 -0.945312 C 1.761719 -1.023438 1.824219 -1.070312 1.894531 -1.070312 L 3.332031 -1.070312 C 3.410156 -1.070312 3.476562 -1.023438 3.484375 -0.945312 C 3.5625 -0.546875 3.609375 -0.269531 3.640625 -0.125 C 3.648438 -0.046875 3.714844 0 3.792969 0 Z M 2.125 -1.910156 C 2.03125 -1.910156 1.953125 -2.007812 1.976562 -2.101562 C 2.015625 -2.308594 2.0625 -2.539062 2.117188 -2.777344 C 2.277344 -3.523438 2.410156 -4.132812 2.515625 -4.585938 C 2.539062 -4.6875 2.691406 -4.6875 2.722656 -4.585938 C 2.824219 -4.132812 2.960938 -3.523438 3.117188 -2.777344 C 3.164062 -2.539062 3.214844 -2.308594 3.261719 -2.101562 C 3.277344 -2.007812 3.207031 -1.910156 3.101562 -1.910156 Z M 2.125 -1.910156 "/></g></g></g><g fill="#00d4fa" fill-opacity="1"><g transform="translate(179.806279, 278.886861)"><g><path d="M 5.902344 -5.554688 L 4.101562 -5.546875 C 4.023438 -5.546875 3.960938 -5.492188 3.949219 -5.410156 C 3.910156 -5.085938 3.792969 -4.1875 3.5625 -2.777344 C 3.460938 -2.125 3.371094 -1.585938 3.292969 -1.160156 C 3.277344 -1.085938 3.171875 -1.085938 3.164062 -1.160156 C 3.085938 -1.585938 3 -2.125 2.886719 -2.777344 C 2.664062 -4.1875 2.546875 -5.085938 2.507812 -5.410156 C 2.5 -5.492188 2.429688 -5.546875 2.347656 -5.546875 L 0.546875 -5.554688 C 0.460938 -5.554688 0.390625 -5.472656 0.398438 -5.386719 C 0.40625 -5.046875 0.429688 -4.15625 0.429688 -2.777344 C 0.429688 -1.394531 0.40625 -0.5 0.398438 -0.160156 C 0.390625 -0.0703125 0.460938 0 0.546875 0 L 1.476562 0 C 1.5625 0 1.632812 -0.0703125 1.625 -0.160156 C 1.617188 -0.5 1.59375 -1.394531 1.59375 -2.777344 C 1.59375 -3.433594 1.59375 -3.984375 1.601562 -4.417969 C 1.609375 -4.5 1.722656 -4.507812 1.738281 -4.425781 C 1.808594 -4 1.902344 -3.441406 2.015625 -2.777344 C 2.246094 -1.363281 2.355469 -0.460938 2.402344 -0.136719 C 2.410156 -0.0546875 2.476562 0.0078125 2.554688 0.0078125 L 3.902344 0.0078125 C 3.984375 0.0078125 4.046875 -0.0546875 4.054688 -0.136719 C 4.09375 -0.460938 4.210938 -1.363281 4.441406 -2.777344 C 4.546875 -3.441406 4.640625 -4 4.71875 -4.425781 C 4.738281 -4.507812 4.847656 -4.5 4.847656 -4.417969 C 4.855469 -3.984375 4.863281 -3.433594 4.863281 -2.777344 C 4.863281 -1.394531 4.839844 -0.5 4.824219 -0.160156 C 4.824219 -0.0703125 4.894531 0 4.984375 0 L 5.902344 0 C 5.996094 0 6.070312 -0.0703125 6.0625 -0.160156 C 6.054688 -0.5 6.023438 -1.394531 6.023438 -2.777344 C 6.023438 -4.15625 6.054688 -5.046875 6.0625 -5.386719 C 6.070312 -5.472656 5.996094 -5.554688 5.902344 -5.554688 Z M 5.902344 -5.554688 "/></g></g></g><g fill="#00d4fa" fill-opacity="1"><g transform="translate(186.27244, 278.886861)"><g><path d="M 1.640625 -4.023438 C 1.640625 -4.417969 1.714844 -4.792969 2.339844 -4.792969 C 2.878906 -4.792969 2.984375 -4.308594 3.007812 -4.039062 C 3.015625 -3.949219 3.078125 -3.886719 3.15625 -3.886719 L 4.09375 -3.886719 C 4.1875 -3.886719 4.261719 -3.96875 4.253906 -4.0625 C 4.195312 -4.871094 3.6875 -5.632812 2.324219 -5.632812 C 0.898438 -5.632812 0.398438 -5.03125 0.398438 -4.023438 C 0.398438 -2.054688 3.0625 -2.539062 3.0625 -1.523438 C 3.0625 -1.125 3 -0.753906 2.363281 -0.753906 C 1.824219 -0.753906 1.65625 -1.230469 1.640625 -1.507812 C 1.632812 -1.59375 1.570312 -1.65625 1.484375 -1.65625 L 0.546875 -1.65625 C 0.460938 -1.65625 0.390625 -1.578125 0.398438 -1.484375 C 0.453125 -0.675781 1.023438 0.0859375 2.378906 0.0859375 C 3.816406 0.0859375 4.316406 -0.515625 4.316406 -1.523438 C 4.316406 -3.515625 1.640625 -3.03125 1.640625 -4.023438 Z M 1.640625 -4.023438 "/></g></g></g><g fill="#00d4fa" fill-opacity="1"><g transform="translate(190.993129, 278.886861)"><g><path d="M 1.539062 -1.175781 L 0.554688 -1.175781 C 0.46875 -1.175781 0.398438 -1.101562 0.398438 -1.015625 L 0.421875 -0.152344 C 0.421875 -0.0625 0.492188 0.0078125 0.570312 0.0078125 L 1.03125 0.0078125 C 1.070312 0.0078125 1.101562 0.03125 1.09375 0.0703125 C 1.070312 0.476562 0.785156 0.507812 0.625 0.507812 L 0.546875 0.507812 C 0.460938 0.507812 0.398438 0.578125 0.398438 0.667969 L 0.398438 0.855469 C 0.398438 0.945312 0.460938 1.015625 0.546875 1.015625 L 0.625 1.015625 C 1.414062 1.015625 1.65625 0.546875 1.675781 0.0078125 L 1.699219 -1.015625 C 1.699219 -1.101562 1.625 -1.175781 1.539062 -1.175781 Z M 1.539062 -1.175781 "/></g></g></g><g fill="#00d4fa" fill-opacity="1"><g transform="translate(193.095622, 278.886861)"><g><path d="M 2.308594 -0.769531 C 1.648438 -0.769531 1.640625 -1.476562 1.640625 -1.667969 L 1.640625 -3.878906 C 1.640625 -4.277344 1.714844 -4.777344 2.339844 -4.777344 C 2.878906 -4.777344 2.984375 -4.300781 3.007812 -4.023438 C 3.015625 -3.941406 3.078125 -3.878906 3.15625 -3.878906 L 4.09375 -3.878906 C 4.1875 -3.878906 4.261719 -3.960938 4.253906 -4.046875 C 4.195312 -4.855469 3.6875 -5.617188 2.324219 -5.617188 C 0.898438 -5.617188 0.398438 -4.886719 0.398438 -3.878906 C 0.398438 -3.539062 0.429688 -3.316406 0.429688 -2.777344 C 0.429688 -2.230469 0.398438 -2.007812 0.398438 -1.667969 C 0.398438 -0.800781 0.871094 0.0703125 2.324219 0.0703125 C 3.679688 0.0703125 4.195312 -0.578125 4.253906 -1.5 C 4.261719 -1.59375 4.1875 -1.667969 4.101562 -1.667969 L 3.214844 -1.667969 C 3.132812 -1.667969 3.070312 -1.601562 3.0625 -1.523438 C 3.03125 -1.160156 2.863281 -0.769531 2.308594 -0.769531 Z M 2.308594 -0.769531 "/></g></g></g><g fill="#00d4fa" fill-opacity="1"><g transform="translate(197.752844, 278.886861)"><g><path d="M 3.792969 0 L 4.71875 0 C 4.824219 0 4.894531 -0.0859375 4.871094 -0.191406 C 4.785156 -0.554688 4.570312 -1.4375 4.292969 -2.777344 C 3.992188 -4.195312 3.824219 -5.101562 3.769531 -5.417969 C 3.753906 -5.5 3.6875 -5.546875 3.617188 -5.546875 L 1.617188 -5.546875 C 1.539062 -5.546875 1.476562 -5.5 1.460938 -5.417969 C 1.402344 -5.101562 1.246094 -4.195312 0.945312 -2.777344 C 0.660156 -1.4375 0.445312 -0.554688 0.355469 -0.191406 C 0.332031 -0.0859375 0.40625 0 0.507812 0 L 1.4375 0 C 1.515625 0 1.578125 -0.046875 1.59375 -0.125 C 1.617188 -0.269531 1.667969 -0.546875 1.746094 -0.945312 C 1.761719 -1.023438 1.824219 -1.070312 1.894531 -1.070312 L 3.332031 -1.070312 C 3.410156 -1.070312 3.476562 -1.023438 3.484375 -0.945312 C 3.5625 -0.546875 3.609375 -0.269531 3.640625 -0.125 C 3.648438 -0.046875 3.714844 0 3.792969 0 Z M 2.125 -1.910156 C 2.03125 -1.910156 1.953125 -2.007812 1.976562 -2.101562 C 2.015625 -2.308594 2.0625 -2.539062 2.117188 -2.777344 C 2.277344 -3.523438 2.410156 -4.132812 2.515625 -4.585938 C 2.539062 -4.6875 2.691406 -4.6875 2.722656 -4.585938 C 2.824219 -4.132812 2.960938 -3.523438 3.117188 -2.777344 C 3.164062 -2.539062 3.214844 -2.308594 3.261719 -2.101562 C 3.277344 -2.007812 3.207031 -1.910156 3.101562 -1.910156 Z M 2.125 -1.910156 "/></g></g></g><g fill="#00d4fa" fill-opacity="1"><g transform="translate(202.997173, 278.886861)"><g><path d="M 4.269531 -4.863281 L 4.269531 -5.394531 C 4.269531 -5.480469 4.203125 -5.546875 4.117188 -5.546875 L 0.546875 -5.546875 C 0.460938 -5.546875 0.398438 -5.480469 0.398438 -5.394531 L 0.398438 -4.863281 C 0.398438 -4.777344 0.460938 -4.710938 0.546875 -4.710938 L 1.578125 -4.710938 C 1.667969 -4.710938 1.738281 -4.640625 1.738281 -4.554688 C 1.746094 -4.109375 1.753906 -3.515625 1.753906 -2.777344 C 1.753906 -1.394531 1.730469 -0.5 1.714844 -0.160156 C 1.714844 -0.0703125 1.785156 0 1.871094 0 L 2.792969 0 C 2.878906 0 2.953125 -0.0703125 2.953125 -0.160156 C 2.933594 -0.5 2.910156 -1.394531 2.910156 -2.777344 C 2.910156 -3.515625 2.917969 -4.109375 2.925781 -4.554688 C 2.925781 -4.640625 3 -4.710938 3.085938 -4.710938 L 4.117188 -4.710938 C 4.203125 -4.710938 4.269531 -4.777344 4.269531 -4.863281 Z M 4.269531 -4.863281 "/></g></g></g><g fill="#00d4fa" fill-opacity="1"><g transform="translate(207.670263, 278.886861)"><g><path d="M 2.308594 -0.769531 C 1.648438 -0.769531 1.640625 -1.476562 1.640625 -1.667969 L 1.640625 -3.878906 C 1.640625 -4.277344 1.714844 -4.777344 2.339844 -4.777344 C 2.878906 -4.777344 2.984375 -4.300781 3.007812 -4.023438 C 3.015625 -3.941406 3.078125 -3.878906 3.15625 -3.878906 L 4.09375 -3.878906 C 4.1875 -3.878906 4.261719 -3.960938 4.253906 -4.046875 C 4.195312 -4.855469 3.6875 -5.617188 2.324219 -5.617188 C 0.898438 -5.617188 0.398438 -4.886719 0.398438 -3.878906 C 0.398438 -3.539062 0.429688 -3.316406 0.429688 -2.777344 C 0.429688 -2.230469 0.398438 -2.007812 0.398438 -1.667969 C 0.398438 -0.800781 0.871094 0.0703125 2.324219 0.0703125 C 3.679688 0.0703125 4.195312 -0.578125 4.253906 -1.5 C 4.261719 -1.59375 4.1875 -1.667969 4.101562 -1.667969 L 3.214844 -1.667969 C 3.132812 -1.667969 3.070312 -1.601562 3.0625 -1.523438 C 3.03125 -1.160156 2.863281 -0.769531 2.308594 -0.769531 Z M 2.308594 -0.769531 "/></g></g></g><g fill="#00d4fa" fill-opacity="1"><g transform="translate(212.327485, 278.886861)"><g><path d="M 4.101562 -5.546875 L 3.179688 -5.546875 C 3.085938 -5.546875 3.015625 -5.472656 3.023438 -5.386719 C 3.03125 -5.09375 3.054688 -4.402344 3.054688 -3.347656 C 3.054688 -3.261719 2.992188 -3.1875 2.902344 -3.1875 L 1.753906 -3.1875 C 1.667969 -3.1875 1.59375 -3.261719 1.59375 -3.347656 C 1.601562 -4.402344 1.617188 -5.09375 1.625 -5.386719 C 1.632812 -5.472656 1.5625 -5.546875 1.476562 -5.546875 L 0.546875 -5.546875 C 0.460938 -5.546875 0.390625 -5.472656 0.398438 -5.386719 C 0.40625 -5.046875 0.429688 -4.15625 0.429688 -2.777344 C 0.429688 -1.394531 0.40625 -0.5 0.398438 -0.160156 C 0.390625 -0.0703125 0.460938 0.0078125 0.546875 0.0078125 L 1.476562 0.0078125 C 1.5625 0.0078125 1.632812 -0.0703125 1.625 -0.160156 C 1.617188 -0.453125 1.601562 -1.140625 1.59375 -2.199219 C 1.59375 -2.285156 1.667969 -2.355469 1.753906 -2.355469 L 2.902344 -2.355469 C 2.992188 -2.355469 3.054688 -2.285156 3.054688 -2.199219 C 3.054688 -1.140625 3.03125 -0.453125 3.023438 -0.160156 C 3.015625 -0.0703125 3.085938 0.0078125 3.179688 0.0078125 L 4.101562 0.0078125 C 4.1875 0.0078125 4.261719 -0.0703125 4.261719 -0.160156 C 4.246094 -0.5 4.222656 -1.394531 4.222656 -2.777344 C 4.222656 -4.15625 4.246094 -5.046875 4.261719 -5.386719 C 4.261719 -5.472656 4.1875 -5.546875 4.101562 -5.546875 Z M 4.101562 -5.546875 "/></g></g></g><g fill="#00d4fa" fill-opacity="1"><g transform="translate(216.992636, 278.886861)"><g/></g></g><g fill="#00d4fa" fill-opacity="1"><g transform="translate(219.356945, 278.886861)"><g><path d="M 2.308594 -0.769531 C 1.648438 -0.769531 1.640625 -1.476562 1.640625 -1.667969 L 1.640625 -3.878906 C 1.640625 -4.277344 1.714844 -4.777344 2.339844 -4.777344 C 2.878906 -4.777344 2.984375 -4.300781 3.007812 -4.023438 C 3.015625 -3.941406 3.078125 -3.878906 3.15625 -3.878906 L 4.09375 -3.878906 C 4.1875 -3.878906 4.261719 -3.960938 4.253906 -4.046875 C 4.195312 -4.855469 3.6875 -5.617188 2.324219 -5.617188 C 0.898438 -5.617188 0.398438 -4.886719 0.398438 -3.878906 C 0.398438 -3.539062 0.429688 -3.316406 0.429688 -2.777344 C 0.429688 -2.230469 0.398438 -2.007812 0.398438 -1.667969 C 0.398438 -0.800781 0.871094 0.0703125 2.324219 0.0703125 C 3.679688 0.0703125 4.195312 -0.578125 4.253906 -1.5 C 4.261719 -1.59375 4.1875 -1.667969 4.101562 -1.667969 L 3.214844 -1.667969 C 3.132812 -1.667969 3.070312 -1.601562 3.0625 -1.523438 C 3.03125 -1.160156 2.863281 -0.769531 2.308594 -0.769531 Z M 2.308594 -0.769531 "/></g></g></g><g fill="#00d4fa" fill-opacity="1"><g transform="translate(224.014167, 278.886861)"><g><path d="M 4.261719 -3.878906 C 4.261719 -4.746094 3.785156 -5.617188 2.324219 -5.617188 C 0.898438 -5.617188 0.398438 -4.886719 0.398438 -3.878906 C 0.398438 -3.539062 0.429688 -3.316406 0.429688 -2.769531 C 0.429688 -2.230469 0.398438 -2.007812 0.398438 -1.667969 C 0.398438 -0.792969 0.871094 0.0703125 2.324219 0.0703125 C 3.761719 0.0703125 4.261719 -0.660156 4.261719 -1.667969 C 4.261719 -2.007812 4.222656 -2.230469 4.222656 -2.769531 C 4.222656 -3.316406 4.261719 -3.539062 4.261719 -3.878906 Z M 2.308594 -0.769531 C 1.648438 -0.769531 1.640625 -1.476562 1.640625 -1.667969 L 1.640625 -3.878906 C 1.640625 -4.277344 1.714844 -4.777344 2.339844 -4.777344 C 3 -4.777344 3.007812 -4.070312 3.007812 -3.878906 L 3.007812 -1.667969 C 3.007812 -1.269531 2.945312 -0.769531 2.308594 -0.769531 Z M 2.308594 -0.769531 "/></g></g></g><g fill="#00d4fa" fill-opacity="1"><g transform="translate(228.679318, 278.886861)"><g><path d="M 1.625 -0.160156 C 1.617188 -0.5 1.59375 -1.394531 1.59375 -2.777344 C 1.59375 -4.15625 1.617188 -5.046875 1.625 -5.386719 C 1.632812 -5.472656 1.5625 -5.554688 1.476562 -5.554688 L 0.546875 -5.554688 C 0.460938 -5.554688 0.390625 -5.472656 0.398438 -5.386719 C 0.40625 -5.046875 0.429688 -4.15625 0.429688 -2.777344 C 0.429688 -1.394531 0.40625 -0.5 0.398438 -0.160156 C 0.390625 -0.0703125 0.460938 0 0.546875 0 L 1.476562 0 C 1.5625 0 1.632812 -0.0703125 1.625 -0.160156 Z M 1.625 -0.160156 "/></g></g></g><g fill="#00d4fa" fill-opacity="1"><g transform="translate(230.710405, 278.886861)"><g><path d="M 4.300781 -2.777344 C 4.300781 -4.15625 4.332031 -5.046875 4.339844 -5.386719 C 4.347656 -5.472656 4.277344 -5.554688 4.179688 -5.554688 L 3.261719 -5.554688 C 3.171875 -5.554688 3.101562 -5.472656 3.101562 -5.386719 C 3.117188 -5.046875 3.140625 -4.15625 3.140625 -2.777344 C 3.140625 -2.371094 3.140625 -2.007812 3.132812 -1.691406 C 3.132812 -1.609375 3.023438 -1.59375 3.007812 -1.675781 C 2.945312 -2 2.878906 -2.363281 2.808594 -2.777344 C 2.554688 -4.1875 2.417969 -5.09375 2.371094 -5.417969 C 2.363281 -5.492188 2.292969 -5.546875 2.222656 -5.546875 L 1.632812 -5.546875 L 1.632812 -5.554688 L 0.546875 -5.554688 C 0.460938 -5.554688 0.390625 -5.472656 0.398438 -5.386719 C 0.40625 -5.046875 0.429688 -4.15625 0.429688 -2.777344 C 0.429688 -1.394531 0.40625 -0.5 0.398438 -0.160156 C 0.390625 -0.0703125 0.460938 0 0.546875 0 L 1.476562 0 C 1.5625 0 1.632812 -0.0703125 1.625 -0.160156 C 1.617188 -0.5 1.59375 -1.394531 1.59375 -2.777344 C 1.59375 -3.179688 1.59375 -3.539062 1.59375 -3.855469 C 1.601562 -3.933594 1.714844 -3.949219 1.730469 -3.871094 C 1.785156 -3.546875 1.855469 -3.179688 1.929688 -2.777344 C 2.183594 -1.355469 2.316406 -0.453125 2.363281 -0.125 C 2.371094 -0.0546875 2.4375 0 2.515625 0 L 4.179688 0 C 4.277344 0 4.347656 -0.0703125 4.339844 -0.160156 C 4.332031 -0.5 4.300781 -1.394531 4.300781 -2.777344 Z M 4.300781 -2.777344 "/></g></g></g><g fill="#00d4fa" fill-opacity="1"><g transform="translate(235.454902, 278.886861)"><g><path d="M 1.640625 -4.023438 C 1.640625 -4.417969 1.714844 -4.792969 2.339844 -4.792969 C 2.878906 -4.792969 2.984375 -4.308594 3.007812 -4.039062 C 3.015625 -3.949219 3.078125 -3.886719 3.15625 -3.886719 L 4.09375 -3.886719 C 4.1875 -3.886719 4.261719 -3.96875 4.253906 -4.0625 C 4.195312 -4.871094 3.6875 -5.632812 2.324219 -5.632812 C 0.898438 -5.632812 0.398438 -5.03125 0.398438 -4.023438 C 0.398438 -2.054688 3.0625 -2.539062 3.0625 -1.523438 C 3.0625 -1.125 3 -0.753906 2.363281 -0.753906 C 1.824219 -0.753906 1.65625 -1.230469 1.640625 -1.507812 C 1.632812 -1.59375 1.570312 -1.65625 1.484375 -1.65625 L 0.546875 -1.65625 C 0.460938 -1.65625 0.390625 -1.578125 0.398438 -1.484375 C 0.453125 -0.675781 1.023438 0.0859375 2.378906 0.0859375 C 3.816406 0.0859375 4.316406 -0.515625 4.316406 -1.523438 C 4.316406 -3.515625 1.640625 -3.03125 1.640625 -4.023438 Z M 1.640625 -4.023438 "/></g></g></g></svg>