<svg xmlns="http://www.w3.org/2000/svg" xmlns:xlink="http://www.w3.org/1999/xlink" width="500" zoomAndPan="magnify" viewBox="0 0 375 374.999991" height="500" preserveAspectRatio="xMidYMid meet" version="1.0"><defs><g/><clipPath id="d77cb9145e"><path d="M 65.542969 37.5 L 309.292969 37.5 L 309.292969 281.25 L 65.542969 281.25 Z M 65.542969 37.5 " clip-rule="nonzero"/></clipPath></defs><g clip-path="url(#d77cb9145e)"><path fill="#0b859b" d="M 187.496094 37.5 C 120.144531 37.5 65.542969 92.101562 65.542969 159.449219 C 65.542969 226.800781 120.144531 281.402344 187.496094 281.402344 C 254.84375 281.402344 309.445312 226.800781 309.445312 159.449219 C 309.445312 92.101562 254.84375 37.5 187.496094 37.5 Z M 235.59375 202.035156 C 231.398438 208.425781 225.460938 213.335938 217.933594 216.65625 C 210.308594 220.003906 200.519531 221.695312 188.84375 221.695312 C 168.390625 221.695312 154.082031 217.777344 146.355469 210.035156 C 138.632812 202.296875 134.535156 193.160156 133.25 181.875 L 166.390625 179.792969 C 167.285156 185.238281 168.925781 189.53125 171.300781 192.558594 C 175.542969 197.957031 181.640625 200.6875 189.429688 200.6875 C 195.25 200.6875 199.851562 199.257812 203.089844 196.460938 C 206.390625 193.597656 208.082031 190.183594 208.082031 186.34375 C 208.082031 182.507812 206.488281 179.386719 203.332031 176.539062 C 200.277344 173.792969 193.640625 171.320312 183.039062 168.996094 C 166.648438 165.304688 154.84375 160.394531 147.949219 154.363281 C 141.074219 148.394531 137.722656 140.996094 137.722656 131.742188 C 137.722656 125.742188 139.496094 119.988281 142.976562 114.636719 C 146.453125 109.289062 151.804688 105.011719 158.859375 101.921875 C 166 98.800781 176 97.207031 188.585938 97.207031 C 203.949219 97.207031 215.773438 100.070312 223.738281 105.710938 C 231.21875 111.011719 235.886719 119.484375 237.609375 130.882812 L 204.8125 132.800781 C 203.691406 127.582031 201.578125 123.664062 198.503906 121.125 C 195.152344 118.363281 190.535156 116.964844 184.78125 116.964844 C 179.96875 116.964844 176.242188 118.035156 173.707031 120.167969 C 171.089844 122.363281 169.753906 125.09375 169.753906 128.28125 C 169.753906 130.734375 170.878906 132.945312 173.105469 134.832031 C 175.105469 136.636719 179.542969 138.265625 186.632812 139.726562 C 203.089844 143.273438 215.007812 146.898438 222.082031 150.492188 C 228.992188 154.019531 234.066406 158.410156 237.1875 163.582031 C 240.308594 168.753906 241.886719 174.621094 241.886719 181.027344 C 241.886719 188.589844 239.773438 195.664062 235.578125 202.035156 Z M 235.59375 202.035156 " fill-opacity="1" fill-rule="nonzero"/></g><g fill="#003a44" fill-opacity="1"><g transform="translate(65.581105, 317.379024)"><g><path d="M 0.882812 0 L 7.054688 0 L 7.445312 -2.714844 C 8.785156 -1.128906 11.253906 0.527344 14.816406 0.527344 C 19.015625 0.527344 24.164062 -1.445312 24.164062 -6.949219 C 24.164062 -15.238281 10.195312 -14.394531 10.195312 -18.027344 C 10.195312 -19.261719 11.605469 -19.894531 12.628906 -19.894531 C 15.097656 -19.894531 17.144531 -18.414062 17.144531 -15.804688 L 23.53125 -15.804688 L 23.53125 -24.660156 L 17.460938 -24.660156 L 17.109375 -21.695312 C 15.699219 -24.339844 12.699219 -25.292969 9.738281 -25.292969 C 6.277344 -25.292969 1.339844 -22.929688 1.339844 -17.710938 C 1.339844 -8.714844 14.886719 -9.878906 14.886719 -7.125 C 14.886719 -5.644531 13.121094 -5.363281 11.886719 -5.363281 C 10.40625 -5.433594 7.445312 -5.925781 7.445312 -8.890625 L 0.882812 -8.890625 Z M 0.882812 0 "/></g></g></g><g fill="#003a44" fill-opacity="1"><g transform="translate(90.61979, 317.379024)"><g><path d="M 17.886719 -9.664062 L 17.886719 -17.636719 L 13.722656 -17.636719 L 13.121094 -15.945312 C 12.523438 -16.652344 11.113281 -17.957031 8.714844 -17.957031 C 4.199219 -17.957031 0.0351562 -15.167969 0.0351562 -8.925781 C 0.0351562 -2.644531 4.550781 0.492188 9.738281 0.492188 C 13.546875 0.492188 16.722656 -1.304688 18.378906 -3.105469 L 15.273438 -6.703125 C 14.109375 -5.433594 12.875 -4.65625 11.007812 -4.691406 C 8.75 -4.726562 7.371094 -6.5625 7.371094 -8.855469 C 7.371094 -11.148438 8.394531 -13.371094 10.476562 -13.371094 C 12.101562 -13.371094 12.628906 -11.359375 12.699219 -9.664062 Z M 17.886719 -9.664062 "/></g></g></g><g fill="#003a44" fill-opacity="1"><g transform="translate(109.345907, 317.379024)"><g><path d="M 11.957031 0 L 11.957031 -4.621094 L 9.417969 -4.621094 L 9.417969 -9.59375 C 9.417969 -11.113281 9.84375 -12.875 11.640625 -12.875 C 13.722656 -12.875 13.722656 -10.792969 13.722656 -9.59375 L 13.722656 0 L 22.789062 0 L 22.789062 -4.621094 L 21.132812 -4.621094 L 21.132812 -10.511719 C 21.132812 -14.214844 20.425781 -18.273438 14.957031 -18.273438 C 12.382812 -18.273438 9.808594 -16.085938 9.417969 -15.453125 L 9.417969 -26.457031 L 0.882812 -26.457031 L 0.882812 -21.871094 L 2.363281 -21.871094 L 2.363281 -4.621094 L 0.882812 -4.621094 L 0.882812 0 Z M 11.957031 0 "/></g></g></g><g fill="#003a44" fill-opacity="1"><g transform="translate(132.656577, 317.379024)"><g><path d="M 10.230469 0.457031 C 15.59375 0.457031 19.929688 -2.894531 19.859375 -8.75 C 19.753906 -14.640625 15.628906 -17.992188 10.054688 -18.0625 C 5.1875 -18.0625 0.421875 -14.78125 0.386719 -8.890625 C 0.316406 -2.644531 5.1875 0.457031 10.230469 0.457031 Z M 10.230469 -4.058594 C 8.75 -4.058594 7.621094 -5.960938 7.621094 -8.855469 C 7.621094 -11.429688 8.679688 -13.476562 10.054688 -13.476562 C 11.710938 -13.441406 12.628906 -11.394531 12.628906 -8.75 C 12.628906 -6.101562 11.746094 -4.058594 10.230469 -4.058594 Z M 10.230469 -4.058594 "/></g></g></g><g fill="#003a44" fill-opacity="1"><g transform="translate(152.899123, 317.379024)"><g><path d="M 11.183594 0 L 11.183594 -4.621094 L 9.101562 -4.621094 L 9.101562 -26.457031 L 0.917969 -26.457031 L 0.917969 -21.90625 L 2.398438 -21.90625 L 2.398438 -4.621094 L 0.882812 -4.621094 L 0.882812 0 Z M 11.183594 0 "/></g></g></g><g fill="#003a44" fill-opacity="1"><g transform="translate(164.607359, 317.379024)"><g><path d="M 2.75 -12.066406 C 4.09375 -12.804688 5.925781 -13.6875 8.007812 -13.6875 C 9.914062 -13.6875 11.359375 -13.300781 11.359375 -11.710938 L 11.359375 -10.476562 C 11.183594 -10.6875 9.949219 -11.710938 7.867188 -11.710938 C 3.878906 -11.710938 0.527344 -9.207031 0.527344 -5.222656 C 0.527344 -1.128906 4.128906 0.671875 7.480469 0.671875 C 8.75 0.671875 10.9375 0.210938 12.242188 -1.585938 L 13.085938 0 L 20.636719 0 L 20.636719 -4.515625 L 18.519531 -4.515625 L 18.519531 -11.394531 C 18.519531 -17.074219 13.195312 -18.660156 8.960938 -18.660156 C 5.714844 -18.660156 2.679688 -17.003906 1.269531 -16.15625 Z M 11.359375 -5.078125 C 11.042969 -4.550781 10.160156 -3.914062 9.101562 -3.914062 C 8.042969 -3.914062 7.230469 -4.585938 7.230469 -5.574219 C 7.230469 -6.667969 7.867188 -7.445312 9.277344 -7.445312 C 10.757812 -7.445312 11.253906 -6.597656 11.359375 -6.421875 Z M 11.359375 -5.078125 "/></g></g></g><g fill="#003a44" fill-opacity="1"><g transform="translate(185.766822, 317.379024)"><g><path d="M 10.867188 0 L 10.867188 -4.621094 L 9.101562 -4.621094 L 9.101562 -8.253906 C 9.101562 -11.359375 10.902344 -12.171875 14.074219 -12.171875 L 14.074219 -18.519531 C 10.441406 -18.519531 9.523438 -17.074219 8.609375 -15.378906 L 7.550781 -17.636719 L 0.917969 -17.636719 L 0.917969 -13.050781 L 2.433594 -13.050781 L 2.433594 -4.621094 L 0.882812 -4.621094 L 0.882812 0 Z M 10.867188 0 "/></g></g></g><g fill="#003a44" fill-opacity="1"><g transform="translate(200.366845, 317.379024)"><g/></g></g><g fill="#003a44" fill-opacity="1"><g transform="translate(209.183294, 317.379024)"><g><path d="M 0.882812 0 L 7.054688 0 L 7.445312 -2.714844 C 8.785156 -1.128906 11.253906 0.527344 14.816406 0.527344 C 19.015625 0.527344 24.164062 -1.445312 24.164062 -6.949219 C 24.164062 -15.238281 10.195312 -14.394531 10.195312 -18.027344 C 10.195312 -19.261719 11.605469 -19.894531 12.628906 -19.894531 C 15.097656 -19.894531 17.144531 -18.414062 17.144531 -15.804688 L 23.53125 -15.804688 L 23.53125 -24.660156 L 17.460938 -24.660156 L 17.109375 -21.695312 C 15.699219 -24.339844 12.699219 -25.292969 9.738281 -25.292969 C 6.277344 -25.292969 1.339844 -22.929688 1.339844 -17.710938 C 1.339844 -8.714844 14.886719 -9.878906 14.886719 -7.125 C 14.886719 -5.644531 13.121094 -5.363281 11.886719 -5.363281 C 10.40625 -5.433594 7.445312 -5.925781 7.445312 -8.890625 L 0.882812 -8.890625 Z M 0.882812 0 "/></g></g></g><g fill="#003a44" fill-opacity="1"><g transform="translate(234.221979, 317.379024)"><g><path d="M 0.527344 -17.636719 L 0.527344 -13.050781 L 2.433594 -13.050781 L 2.433594 -6.773438 C 2.539062 -2.257812 2.714844 0.636719 8.007812 0.636719 C 8.820312 0.636719 11.21875 0.386719 12.277344 -0.0351562 L 12.277344 -4.550781 C 11.605469 -4.269531 10.511719 -3.949219 10.054688 -3.949219 C 8.679688 -3.949219 8.925781 -5.574219 8.925781 -6.773438 L 8.925781 -13.050781 L 12.277344 -13.050781 L 12.277344 -17.636719 L 8.925781 -17.636719 L 8.925781 -22.964844 L 2.433594 -20.882812 L 2.433594 -17.636719 Z M 0.527344 -17.636719 "/></g></g></g><g fill="#003a44" fill-opacity="1"><g transform="translate(247.023452, 317.379024)"><g><path d="M 2.75 -12.066406 C 4.09375 -12.804688 5.925781 -13.6875 8.007812 -13.6875 C 9.914062 -13.6875 11.359375 -13.300781 11.359375 -11.710938 L 11.359375 -10.476562 C 11.183594 -10.6875 9.949219 -11.710938 7.867188 -11.710938 C 3.878906 -11.710938 0.527344 -9.207031 0.527344 -5.222656 C 0.527344 -1.128906 4.128906 0.671875 7.480469 0.671875 C 8.75 0.671875 10.9375 0.210938 12.242188 -1.585938 L 13.085938 0 L 20.636719 0 L 20.636719 -4.515625 L 18.519531 -4.515625 L 18.519531 -11.394531 C 18.519531 -17.074219 13.195312 -18.660156 8.960938 -18.660156 C 5.714844 -18.660156 2.679688 -17.003906 1.269531 -16.15625 Z M 11.359375 -5.078125 C 11.042969 -4.550781 10.160156 -3.914062 9.101562 -3.914062 C 8.042969 -3.914062 7.230469 -4.585938 7.230469 -5.574219 C 7.230469 -6.667969 7.867188 -7.445312 9.277344 -7.445312 C 10.757812 -7.445312 11.253906 -6.597656 11.359375 -6.421875 Z M 11.359375 -5.078125 "/></g></g></g><g fill="#003a44" fill-opacity="1"><g transform="translate(268.182915, 317.379024)"><g><path d="M 0.527344 0 L 4.9375 0 L 5.257812 -2.152344 C 6.101562 -0.8125 8.113281 0.421875 10.652344 0.421875 C 14.074219 0.421875 17.214844 -1.550781 17.214844 -4.867188 C 17.214844 -8.574219 14.214844 -9.59375 11.535156 -10.511719 C 9.277344 -11.289062 7.195312 -11.710938 7.195312 -12.699219 C 7.195312 -13.582031 7.832031 -13.96875 8.574219 -13.96875 C 10.335938 -13.96875 12.171875 -12.769531 12.171875 -11.289062 L 16.757812 -11.289062 L 16.757812 -17.636719 L 12.417969 -17.636719 L 12.136719 -15.308594 C 11.394531 -16.828125 9.277344 -18.0625 6.878906 -18.0625 C 4.375 -18.0625 0.671875 -16.542969 0.671875 -12.945312 C 0.671875 -9.628906 2.964844 -8.148438 5.363281 -7.300781 C 7.902344 -6.421875 10.546875 -6.242188 10.546875 -5.1875 C 10.546875 -4.199219 9.699219 -3.984375 8.996094 -3.984375 C 7.9375 -3.984375 5.257812 -4.480469 5.257812 -6.351562 L 0.527344 -6.351562 Z M 0.527344 0 "/></g></g></g><g fill="#003a44" fill-opacity="1"><g transform="translate(286.097917, 317.379024)"><g><path d="M 11.957031 0 L 11.957031 -4.621094 L 9.417969 -4.621094 L 9.417969 -9.59375 C 9.417969 -11.113281 9.84375 -12.875 11.640625 -12.875 C 13.722656 -12.875 13.722656 -10.792969 13.722656 -9.59375 L 13.722656 0 L 22.789062 0 L 22.789062 -4.621094 L 21.132812 -4.621094 L 21.132812 -10.511719 C 21.132812 -14.214844 20.425781 -18.273438 14.957031 -18.273438 C 12.382812 -18.273438 9.808594 -16.085938 9.417969 -15.453125 L 9.417969 -26.457031 L 0.882812 -26.457031 L 0.882812 -21.871094 L 2.363281 -21.871094 L 2.363281 -4.621094 L 0.882812 -4.621094 L 0.882812 0 Z M 11.957031 0 "/></g></g></g><g fill="#00d4fa" fill-opacity="1"><g transform="translate(103.923179, 332.465837)"><g><path d="M 3.664062 -1.222656 C 2.617188 -1.222656 2.605469 -2.339844 2.605469 -2.644531 L 2.605469 -6.152344 C 2.605469 -6.785156 2.71875 -7.578125 3.710938 -7.578125 C 4.570312 -7.578125 4.730469 -6.820312 4.769531 -6.378906 C 4.78125 -6.253906 4.882812 -6.152344 5.007812 -6.152344 L 6.492188 -6.152344 C 6.644531 -6.152344 6.757812 -6.28125 6.746094 -6.417969 C 6.65625 -7.703125 5.851562 -8.910156 3.6875 -8.910156 C 1.421875 -8.910156 0.628906 -7.753906 0.628906 -6.152344 C 0.628906 -5.613281 0.679688 -5.261719 0.679688 -4.40625 C 0.679688 -3.535156 0.628906 -3.183594 0.628906 -2.644531 C 0.628906 -1.269531 1.382812 0.113281 3.6875 0.113281 C 5.839844 0.113281 6.65625 -0.917969 6.746094 -2.378906 C 6.757812 -2.53125 6.644531 -2.644531 6.507812 -2.644531 L 5.097656 -2.644531 C 4.972656 -2.644531 4.871094 -2.542969 4.859375 -2.417969 C 4.808594 -1.835938 4.542969 -1.222656 3.664062 -1.222656 Z M 3.664062 -1.222656 "/></g></g></g><g fill="#00d4fa" fill-opacity="1"><g transform="translate(111.310869, 332.465837)"><g><path d="M 6.507812 -8.796875 L 5.046875 -8.796875 C 4.894531 -8.796875 4.78125 -8.683594 4.796875 -8.546875 C 4.808594 -8.078125 4.84375 -6.984375 4.84375 -5.3125 C 4.84375 -5.171875 4.746094 -5.058594 4.605469 -5.058594 L 2.78125 -5.058594 C 2.644531 -5.058594 2.53125 -5.171875 2.53125 -5.3125 C 2.542969 -6.984375 2.566406 -8.078125 2.578125 -8.546875 C 2.59375 -8.683594 2.480469 -8.796875 2.339844 -8.796875 L 0.867188 -8.796875 C 0.730469 -8.796875 0.617188 -8.683594 0.628906 -8.546875 C 0.640625 -8.003906 0.679688 -6.59375 0.679688 -4.40625 C 0.679688 -2.214844 0.640625 -0.792969 0.628906 -0.25 C 0.617188 -0.113281 0.730469 0.0117188 0.867188 0.0117188 L 2.339844 0.0117188 C 2.480469 0.0117188 2.59375 -0.113281 2.578125 -0.25 C 2.566406 -0.71875 2.542969 -1.8125 2.53125 -3.484375 C 2.53125 -3.625 2.644531 -3.738281 2.78125 -3.738281 L 4.605469 -3.738281 C 4.746094 -3.738281 4.84375 -3.625 4.84375 -3.484375 C 4.84375 -1.8125 4.808594 -0.71875 4.796875 -0.25 C 4.78125 -0.113281 4.894531 0.0117188 5.046875 0.0117188 L 6.507812 0.0117188 C 6.644531 0.0117188 6.757812 -0.113281 6.757812 -0.25 C 6.734375 -0.792969 6.695312 -2.214844 6.695312 -4.40625 C 6.695312 -6.59375 6.734375 -8.003906 6.757812 -8.546875 C 6.757812 -8.683594 6.644531 -8.796875 6.507812 -8.796875 Z M 6.507812 -8.796875 "/></g></g></g><g fill="#00d4fa" fill-opacity="1"><g transform="translate(118.711137, 332.465837)"><g><path d="M 6.015625 0 L 7.488281 0 C 7.652344 0 7.765625 -0.136719 7.726562 -0.300781 C 7.589844 -0.882812 7.25 -2.277344 6.808594 -4.40625 C 6.332031 -6.65625 6.066406 -8.09375 5.976562 -8.597656 C 5.953125 -8.722656 5.851562 -8.796875 5.738281 -8.796875 L 2.566406 -8.796875 C 2.441406 -8.796875 2.339844 -8.722656 2.316406 -8.597656 C 2.226562 -8.09375 1.976562 -6.65625 1.496094 -4.40625 C 1.042969 -2.277344 0.703125 -0.882812 0.566406 -0.300781 C 0.527344 -0.136719 0.640625 0 0.804688 0 L 2.277344 0 C 2.402344 0 2.503906 -0.0742188 2.53125 -0.203125 C 2.566406 -0.429688 2.644531 -0.867188 2.769531 -1.496094 C 2.792969 -1.625 2.894531 -1.699219 3.007812 -1.699219 L 5.285156 -1.699219 C 5.410156 -1.699219 5.511719 -1.625 5.523438 -1.496094 C 5.652344 -0.867188 5.726562 -0.429688 5.777344 -0.203125 C 5.789062 -0.0742188 5.890625 0 6.015625 0 Z M 3.371094 -3.03125 C 3.222656 -3.03125 3.097656 -3.183594 3.132812 -3.335938 C 3.195312 -3.664062 3.273438 -4.027344 3.359375 -4.40625 C 3.613281 -5.589844 3.824219 -6.558594 3.988281 -7.273438 C 4.027344 -7.4375 4.265625 -7.4375 4.316406 -7.273438 C 4.480469 -6.558594 4.695312 -5.589844 4.945312 -4.40625 C 5.023438 -4.027344 5.097656 -3.664062 5.171875 -3.335938 C 5.199219 -3.183594 5.085938 -3.03125 4.921875 -3.03125 Z M 3.371094 -3.03125 "/></g></g></g><g fill="#00d4fa" fill-opacity="1"><g transform="translate(127.030148, 332.465837)"><g><path d="M 2.605469 -6.378906 C 2.605469 -7.011719 2.71875 -7.601562 3.710938 -7.601562 C 4.570312 -7.601562 4.730469 -6.832031 4.769531 -6.40625 C 4.78125 -6.265625 4.882812 -6.167969 5.007812 -6.167969 L 6.492188 -6.167969 C 6.644531 -6.167969 6.757812 -6.292969 6.746094 -6.445312 C 6.65625 -7.726562 5.851562 -8.9375 3.6875 -8.9375 C 1.421875 -8.9375 0.628906 -7.980469 0.628906 -6.378906 C 0.628906 -3.257812 4.859375 -4.027344 4.859375 -2.417969 C 4.859375 -1.789062 4.757812 -1.195312 3.75 -1.195312 C 2.894531 -1.195312 2.628906 -1.949219 2.605469 -2.390625 C 2.59375 -2.53125 2.492188 -2.628906 2.351562 -2.628906 L 0.867188 -2.628906 C 0.730469 -2.628906 0.617188 -2.503906 0.628906 -2.351562 C 0.71875 -1.070312 1.625 0.136719 3.777344 0.136719 C 6.054688 0.136719 6.847656 -0.816406 6.847656 -2.417969 C 6.847656 -5.574219 2.605469 -4.808594 2.605469 -6.378906 Z M 2.605469 -6.378906 "/></g></g></g><g fill="#00d4fa" fill-opacity="1"><g transform="translate(134.518514, 332.465837)"><g><path d="M 6.34375 -7.714844 L 6.34375 -8.558594 C 6.34375 -8.695312 6.230469 -8.796875 6.089844 -8.796875 L 0.867188 -8.796875 C 0.730469 -8.796875 0.617188 -8.683594 0.628906 -8.546875 C 0.640625 -8.003906 0.679688 -6.59375 0.679688 -4.40625 C 0.679688 -2.214844 0.640625 -0.792969 0.628906 -0.25 C 0.617188 -0.113281 0.730469 0.0117188 0.867188 0.0117188 L 6.089844 0.0117188 C 6.230469 0.0117188 6.34375 -0.101562 6.34375 -0.238281 L 6.34375 -1.082031 C 6.34375 -1.222656 6.230469 -1.320312 6.089844 -1.320312 L 2.792969 -1.320312 C 2.667969 -1.320312 2.554688 -1.433594 2.554688 -1.574219 C 2.542969 -2.089844 2.53125 -2.71875 2.53125 -3.484375 C 2.53125 -3.625 2.644531 -3.738281 2.78125 -3.738281 L 5.425781 -3.738281 C 5.5625 -3.738281 5.675781 -3.839844 5.675781 -3.976562 L 5.675781 -4.820312 C 5.675781 -4.957031 5.5625 -5.058594 5.425781 -5.058594 L 2.78125 -5.058594 C 2.644531 -5.058594 2.53125 -5.171875 2.53125 -5.3125 C 2.53125 -6.078125 2.542969 -6.707031 2.554688 -7.222656 C 2.554688 -7.363281 2.667969 -7.476562 2.792969 -7.476562 L 6.089844 -7.476562 C 6.230469 -7.476562 6.34375 -7.578125 6.34375 -7.714844 Z M 6.34375 -7.714844 "/></g></g></g><g fill="#00d4fa" fill-opacity="1"><g transform="translate(141.503468, 332.465837)"><g/></g></g><g fill="#00d4fa" fill-opacity="1"><g transform="translate(145.253941, 332.465837)"><g><path d="M 6.746094 -6.039062 C 6.746094 -6.039062 6.746094 -6.054688 6.746094 -6.054688 C 6.746094 -6.078125 6.746094 -6.105469 6.746094 -6.128906 C 6.71875 -7.476562 5.941406 -8.796875 3.6875 -8.796875 L 0.867188 -8.796875 C 0.730469 -8.796875 0.617188 -8.683594 0.628906 -8.546875 C 0.640625 -8.003906 0.679688 -6.59375 0.679688 -4.40625 C 0.679688 -2.214844 0.640625 -0.792969 0.628906 -0.25 C 0.617188 -0.113281 0.730469 0.0117188 0.867188 0.0117188 L 3.6875 0.0117188 C 5.953125 0.0117188 6.746094 -1.019531 6.746094 -2.628906 C 6.746094 -3.160156 6.695312 -3.523438 6.695312 -4.378906 C 6.695312 -5.183594 6.746094 -5.550781 6.746094 -6.039062 Z M 3.664062 -1.320312 L 2.792969 -1.320312 C 2.667969 -1.320312 2.554688 -1.433594 2.554688 -1.574219 C 2.542969 -2.277344 2.53125 -3.234375 2.53125 -4.40625 C 2.53125 -5.574219 2.542969 -6.519531 2.554688 -7.222656 C 2.554688 -7.363281 2.667969 -7.476562 2.792969 -7.476562 L 3.710938 -7.476562 C 4.757812 -7.476562 4.769531 -6.34375 4.769531 -6.039062 L 4.769531 -2.628906 C 4.769531 -1.988281 4.65625 -1.320312 3.664062 -1.320312 Z M 3.664062 -1.320312 "/></g></g></g><g fill="#00d4fa" fill-opacity="1"><g transform="translate(152.64163, 332.465837)"><g><path d="M 6.457031 0 C 6.605469 0 6.734375 -0.125 6.707031 -0.277344 C 6.671875 -0.617188 6.605469 -1.285156 6.605469 -2.175781 C 6.605469 -3.121094 6.128906 -3.675781 5.488281 -3.988281 C 5.410156 -4.027344 5.410156 -4.128906 5.488281 -4.164062 C 6.179688 -4.53125 6.671875 -5.171875 6.671875 -6.152344 C 6.671875 -8.320312 5.261719 -8.796875 3.613281 -8.796875 L 2.59375 -8.796875 L 2.59375 -8.808594 L 0.867188 -8.808594 C 0.730469 -8.808594 0.617188 -8.683594 0.628906 -8.546875 C 0.640625 -8.003906 0.679688 -6.59375 0.679688 -4.40625 C 0.679688 -2.214844 0.640625 -0.792969 0.628906 -0.25 C 0.617188 -0.113281 0.730469 0 0.867188 0 L 2.339844 0 C 2.480469 0 2.59375 -0.113281 2.578125 -0.25 C 2.566406 -0.679688 2.542969 -1.660156 2.53125 -3.132812 C 2.53125 -3.273438 2.644531 -3.386719 2.78125 -3.386719 L 3.5625 -3.386719 C 4.390625 -3.386719 4.617188 -2.742188 4.617188 -2.191406 L 4.617188 -0.238281 C 4.617188 -0.101562 4.730469 0 4.871094 0 Z M 3.636719 -7.476562 C 4.027344 -7.476562 4.695312 -7.171875 4.695312 -6.152344 C 4.695312 -5.589844 4.46875 -4.71875 3.636719 -4.71875 L 2.78125 -4.71875 C 2.644531 -4.71875 2.53125 -4.832031 2.53125 -4.972656 C 2.53125 -5.878906 2.542969 -6.632812 2.554688 -7.222656 C 2.554688 -7.363281 2.667969 -7.476562 2.804688 -7.476562 Z M 3.636719 -7.476562 "/></g></g></g><g fill="#00d4fa" fill-opacity="1"><g transform="translate(159.991569, 332.465837)"><g><path d="M 6.34375 -7.714844 L 6.34375 -8.558594 C 6.34375 -8.695312 6.230469 -8.796875 6.089844 -8.796875 L 0.867188 -8.796875 C 0.730469 -8.796875 0.617188 -8.683594 0.628906 -8.546875 C 0.640625 -8.003906 0.679688 -6.59375 0.679688 -4.40625 C 0.679688 -2.214844 0.640625 -0.792969 0.628906 -0.25 C 0.617188 -0.113281 0.730469 0.0117188 0.867188 0.0117188 L 6.089844 0.0117188 C 6.230469 0.0117188 6.34375 -0.101562 6.34375 -0.238281 L 6.34375 -1.082031 C 6.34375 -1.222656 6.230469 -1.320312 6.089844 -1.320312 L 2.792969 -1.320312 C 2.667969 -1.320312 2.554688 -1.433594 2.554688 -1.574219 C 2.542969 -2.089844 2.53125 -2.71875 2.53125 -3.484375 C 2.53125 -3.625 2.644531 -3.738281 2.78125 -3.738281 L 5.425781 -3.738281 C 5.5625 -3.738281 5.675781 -3.839844 5.675781 -3.976562 L 5.675781 -4.820312 C 5.675781 -4.957031 5.5625 -5.058594 5.425781 -5.058594 L 2.78125 -5.058594 C 2.644531 -5.058594 2.53125 -5.171875 2.53125 -5.3125 C 2.53125 -6.078125 2.542969 -6.707031 2.554688 -7.222656 C 2.554688 -7.363281 2.667969 -7.476562 2.792969 -7.476562 L 6.089844 -7.476562 C 6.230469 -7.476562 6.34375 -7.578125 6.34375 -7.714844 Z M 6.34375 -7.714844 "/></g></g></g><g fill="#00d4fa" fill-opacity="1"><g transform="translate(166.976523, 332.465837)"><g><path d="M 6.015625 0 L 7.488281 0 C 7.652344 0 7.765625 -0.136719 7.726562 -0.300781 C 7.589844 -0.882812 7.25 -2.277344 6.808594 -4.40625 C 6.332031 -6.65625 6.066406 -8.09375 5.976562 -8.597656 C 5.953125 -8.722656 5.851562 -8.796875 5.738281 -8.796875 L 2.566406 -8.796875 C 2.441406 -8.796875 2.339844 -8.722656 2.316406 -8.597656 C 2.226562 -8.09375 1.976562 -6.65625 1.496094 -4.40625 C 1.042969 -2.277344 0.703125 -0.882812 0.566406 -0.300781 C 0.527344 -0.136719 0.640625 0 0.804688 0 L 2.277344 0 C 2.402344 0 2.503906 -0.0742188 2.53125 -0.203125 C 2.566406 -0.429688 2.644531 -0.867188 2.769531 -1.496094 C 2.792969 -1.625 2.894531 -1.699219 3.007812 -1.699219 L 5.285156 -1.699219 C 5.410156 -1.699219 5.511719 -1.625 5.523438 -1.496094 C 5.652344 -0.867188 5.726562 -0.429688 5.777344 -0.203125 C 5.789062 -0.0742188 5.890625 0 6.015625 0 Z M 3.371094 -3.03125 C 3.222656 -3.03125 3.097656 -3.183594 3.132812 -3.335938 C 3.195312 -3.664062 3.273438 -4.027344 3.359375 -4.40625 C 3.613281 -5.589844 3.824219 -6.558594 3.988281 -7.273438 C 4.027344 -7.4375 4.265625 -7.4375 4.316406 -7.273438 C 4.480469 -6.558594 4.695312 -5.589844 4.945312 -4.40625 C 5.023438 -4.027344 5.097656 -3.664062 5.171875 -3.335938 C 5.199219 -3.183594 5.085938 -3.03125 4.921875 -3.03125 Z M 3.371094 -3.03125 "/></g></g></g><g fill="#00d4fa" fill-opacity="1"><g transform="translate(175.295534, 332.465837)"><g><path d="M 9.363281 -8.808594 L 6.507812 -8.796875 C 6.378906 -8.796875 6.28125 -8.710938 6.265625 -8.582031 C 6.203125 -8.066406 6.015625 -6.644531 5.652344 -4.40625 C 5.488281 -3.371094 5.347656 -2.515625 5.222656 -1.835938 C 5.199219 -1.722656 5.035156 -1.722656 5.023438 -1.835938 C 4.894531 -2.515625 4.757812 -3.371094 4.582031 -4.40625 C 4.230469 -6.644531 4.039062 -8.066406 3.976562 -8.582031 C 3.964844 -8.710938 3.851562 -8.796875 3.726562 -8.796875 L 0.867188 -8.808594 C 0.730469 -8.808594 0.617188 -8.683594 0.628906 -8.546875 C 0.640625 -8.003906 0.679688 -6.59375 0.679688 -4.40625 C 0.679688 -2.214844 0.640625 -0.792969 0.628906 -0.25 C 0.617188 -0.113281 0.730469 0 0.867188 0 L 2.339844 0 C 2.480469 0 2.59375 -0.113281 2.578125 -0.25 C 2.566406 -0.792969 2.53125 -2.214844 2.53125 -4.40625 C 2.53125 -5.449219 2.53125 -6.316406 2.542969 -7.011719 C 2.554688 -7.136719 2.730469 -7.148438 2.757812 -7.023438 C 2.871094 -6.34375 3.019531 -5.460938 3.195312 -4.40625 C 3.5625 -2.164062 3.738281 -0.730469 3.8125 -0.214844 C 3.824219 -0.0898438 3.925781 0.0117188 4.050781 0.0117188 L 6.191406 0.0117188 C 6.316406 0.0117188 6.417969 -0.0898438 6.429688 -0.214844 C 6.492188 -0.730469 6.683594 -2.164062 7.046875 -4.40625 C 7.210938 -5.460938 7.363281 -6.34375 7.488281 -7.023438 C 7.511719 -7.148438 7.691406 -7.136719 7.691406 -7.011719 C 7.703125 -6.316406 7.714844 -5.449219 7.714844 -4.40625 C 7.714844 -2.214844 7.675781 -0.792969 7.652344 -0.25 C 7.652344 -0.113281 7.765625 0 7.902344 0 L 9.363281 0 C 9.515625 0 9.628906 -0.113281 9.617188 -0.25 C 9.601562 -0.792969 9.550781 -2.214844 9.550781 -4.40625 C 9.550781 -6.59375 9.601562 -8.003906 9.617188 -8.546875 C 9.628906 -8.683594 9.515625 -8.808594 9.363281 -8.808594 Z M 9.363281 -8.808594 "/></g></g></g><g fill="#00d4fa" fill-opacity="1"><g transform="translate(185.552721, 332.465837)"><g><path d="M 2.605469 -6.378906 C 2.605469 -7.011719 2.71875 -7.601562 3.710938 -7.601562 C 4.570312 -7.601562 4.730469 -6.832031 4.769531 -6.40625 C 4.78125 -6.265625 4.882812 -6.167969 5.007812 -6.167969 L 6.492188 -6.167969 C 6.644531 -6.167969 6.757812 -6.292969 6.746094 -6.445312 C 6.65625 -7.726562 5.851562 -8.9375 3.6875 -8.9375 C 1.421875 -8.9375 0.628906 -7.980469 0.628906 -6.378906 C 0.628906 -3.257812 4.859375 -4.027344 4.859375 -2.417969 C 4.859375 -1.789062 4.757812 -1.195312 3.75 -1.195312 C 2.894531 -1.195312 2.628906 -1.949219 2.605469 -2.390625 C 2.59375 -2.53125 2.492188 -2.628906 2.351562 -2.628906 L 0.867188 -2.628906 C 0.730469 -2.628906 0.617188 -2.503906 0.628906 -2.351562 C 0.71875 -1.070312 1.625 0.136719 3.777344 0.136719 C 6.054688 0.136719 6.847656 -0.816406 6.847656 -2.417969 C 6.847656 -5.574219 2.605469 -4.808594 2.605469 -6.378906 Z M 2.605469 -6.378906 "/></g></g></g><g fill="#00d4fa" fill-opacity="1"><g transform="translate(193.041087, 332.465837)"><g><path d="M 2.441406 -1.863281 L 0.882812 -1.863281 C 0.742188 -1.863281 0.628906 -1.75 0.628906 -1.609375 L 0.667969 -0.238281 C 0.667969 -0.101562 0.78125 0.0117188 0.90625 0.0117188 L 1.636719 0.0117188 C 1.699219 0.0117188 1.75 0.0507812 1.738281 0.113281 C 1.699219 0.753906 1.246094 0.804688 0.996094 0.804688 L 0.867188 0.804688 C 0.730469 0.804688 0.628906 0.917969 0.628906 1.058594 L 0.628906 1.359375 C 0.628906 1.496094 0.730469 1.609375 0.867188 1.609375 L 0.996094 1.609375 C 2.238281 1.609375 2.628906 0.867188 2.65625 0.0117188 L 2.691406 -1.609375 C 2.691406 -1.75 2.578125 -1.863281 2.441406 -1.863281 Z M 2.441406 -1.863281 "/></g></g></g><g fill="#00d4fa" fill-opacity="1"><g transform="translate(196.376245, 332.465837)"><g><path d="M 3.664062 -1.222656 C 2.617188 -1.222656 2.605469 -2.339844 2.605469 -2.644531 L 2.605469 -6.152344 C 2.605469 -6.785156 2.71875 -7.578125 3.710938 -7.578125 C 4.570312 -7.578125 4.730469 -6.820312 4.769531 -6.378906 C 4.78125 -6.253906 4.882812 -6.152344 5.007812 -6.152344 L 6.492188 -6.152344 C 6.644531 -6.152344 6.757812 -6.28125 6.746094 -6.417969 C 6.65625 -7.703125 5.851562 -8.910156 3.6875 -8.910156 C 1.421875 -8.910156 0.628906 -7.753906 0.628906 -6.152344 C 0.628906 -5.613281 0.679688 -5.261719 0.679688 -4.40625 C 0.679688 -3.535156 0.628906 -3.183594 0.628906 -2.644531 C 0.628906 -1.269531 1.382812 0.113281 3.6875 0.113281 C 5.839844 0.113281 6.65625 -0.917969 6.746094 -2.378906 C 6.757812 -2.53125 6.644531 -2.644531 6.507812 -2.644531 L 5.097656 -2.644531 C 4.972656 -2.644531 4.871094 -2.542969 4.859375 -2.417969 C 4.808594 -1.835938 4.542969 -1.222656 3.664062 -1.222656 Z M 3.664062 -1.222656 "/></g></g></g><g fill="#00d4fa" fill-opacity="1"><g transform="translate(203.763935, 332.465837)"><g><path d="M 6.015625 0 L 7.488281 0 C 7.652344 0 7.765625 -0.136719 7.726562 -0.300781 C 7.589844 -0.882812 7.25 -2.277344 6.808594 -4.40625 C 6.332031 -6.65625 6.066406 -8.09375 5.976562 -8.597656 C 5.953125 -8.722656 5.851562 -8.796875 5.738281 -8.796875 L 2.566406 -8.796875 C 2.441406 -8.796875 2.339844 -8.722656 2.316406 -8.597656 C 2.226562 -8.09375 1.976562 -6.65625 1.496094 -4.40625 C 1.042969 -2.277344 0.703125 -0.882812 0.566406 -0.300781 C 0.527344 -0.136719 0.640625 0 0.804688 0 L 2.277344 0 C 2.402344 0 2.503906 -0.0742188 2.53125 -0.203125 C 2.566406 -0.429688 2.644531 -0.867188 2.769531 -1.496094 C 2.792969 -1.625 2.894531 -1.699219 3.007812 -1.699219 L 5.285156 -1.699219 C 5.410156 -1.699219 5.511719 -1.625 5.523438 -1.496094 C 5.652344 -0.867188 5.726562 -0.429688 5.777344 -0.203125 C 5.789062 -0.0742188 5.890625 0 6.015625 0 Z M 3.371094 -3.03125 C 3.222656 -3.03125 3.097656 -3.183594 3.132812 -3.335938 C 3.195312 -3.664062 3.273438 -4.027344 3.359375 -4.40625 C 3.613281 -5.589844 3.824219 -6.558594 3.988281 -7.273438 C 4.027344 -7.4375 4.265625 -7.4375 4.316406 -7.273438 C 4.480469 -6.558594 4.695312 -5.589844 4.945312 -4.40625 C 5.023438 -4.027344 5.097656 -3.664062 5.171875 -3.335938 C 5.199219 -3.183594 5.085938 -3.03125 4.921875 -3.03125 Z M 3.371094 -3.03125 "/></g></g></g><g fill="#00d4fa" fill-opacity="1"><g transform="translate(212.082946, 332.465837)"><g><path d="M 6.769531 -7.714844 L 6.769531 -8.558594 C 6.769531 -8.695312 6.671875 -8.796875 6.53125 -8.796875 L 0.867188 -8.796875 C 0.730469 -8.796875 0.628906 -8.695312 0.628906 -8.558594 L 0.628906 -7.714844 C 0.628906 -7.578125 0.730469 -7.476562 0.867188 -7.476562 L 2.503906 -7.476562 C 2.644531 -7.476562 2.757812 -7.363281 2.757812 -7.222656 C 2.769531 -6.519531 2.78125 -5.574219 2.78125 -4.40625 C 2.78125 -2.214844 2.742188 -0.792969 2.71875 -0.25 C 2.71875 -0.113281 2.832031 0 2.96875 0 L 4.429688 0 C 4.570312 0 4.683594 -0.113281 4.683594 -0.25 C 4.65625 -0.792969 4.617188 -2.214844 4.617188 -4.40625 C 4.617188 -5.574219 4.632812 -6.519531 4.644531 -7.222656 C 4.644531 -7.363281 4.757812 -7.476562 4.894531 -7.476562 L 6.53125 -7.476562 C 6.671875 -7.476562 6.769531 -7.578125 6.769531 -7.714844 Z M 6.769531 -7.714844 "/></g></g></g><g fill="#00d4fa" fill-opacity="1"><g transform="translate(219.495809, 332.465837)"><g><path d="M 3.664062 -1.222656 C 2.617188 -1.222656 2.605469 -2.339844 2.605469 -2.644531 L 2.605469 -6.152344 C 2.605469 -6.785156 2.71875 -7.578125 3.710938 -7.578125 C 4.570312 -7.578125 4.730469 -6.820312 4.769531 -6.378906 C 4.78125 -6.253906 4.882812 -6.152344 5.007812 -6.152344 L 6.492188 -6.152344 C 6.644531 -6.152344 6.757812 -6.28125 6.746094 -6.417969 C 6.65625 -7.703125 5.851562 -8.910156 3.6875 -8.910156 C 1.421875 -8.910156 0.628906 -7.753906 0.628906 -6.152344 C 0.628906 -5.613281 0.679688 -5.261719 0.679688 -4.40625 C 0.679688 -3.535156 0.628906 -3.183594 0.628906 -2.644531 C 0.628906 -1.269531 1.382812 0.113281 3.6875 0.113281 C 5.839844 0.113281 6.65625 -0.917969 6.746094 -2.378906 C 6.757812 -2.53125 6.644531 -2.644531 6.507812 -2.644531 L 5.097656 -2.644531 C 4.972656 -2.644531 4.871094 -2.542969 4.859375 -2.417969 C 4.808594 -1.835938 4.542969 -1.222656 3.664062 -1.222656 Z M 3.664062 -1.222656 "/></g></g></g><g fill="#00d4fa" fill-opacity="1"><g transform="translate(226.883499, 332.465837)"><g><path d="M 6.507812 -8.796875 L 5.046875 -8.796875 C 4.894531 -8.796875 4.78125 -8.683594 4.796875 -8.546875 C 4.808594 -8.078125 4.84375 -6.984375 4.84375 -5.3125 C 4.84375 -5.171875 4.746094 -5.058594 4.605469 -5.058594 L 2.78125 -5.058594 C 2.644531 -5.058594 2.53125 -5.171875 2.53125 -5.3125 C 2.542969 -6.984375 2.566406 -8.078125 2.578125 -8.546875 C 2.59375 -8.683594 2.480469 -8.796875 2.339844 -8.796875 L 0.867188 -8.796875 C 0.730469 -8.796875 0.617188 -8.683594 0.628906 -8.546875 C 0.640625 -8.003906 0.679688 -6.59375 0.679688 -4.40625 C 0.679688 -2.214844 0.640625 -0.792969 0.628906 -0.25 C 0.617188 -0.113281 0.730469 0.0117188 0.867188 0.0117188 L 2.339844 0.0117188 C 2.480469 0.0117188 2.59375 -0.113281 2.578125 -0.25 C 2.566406 -0.71875 2.542969 -1.8125 2.53125 -3.484375 C 2.53125 -3.625 2.644531 -3.738281 2.78125 -3.738281 L 4.605469 -3.738281 C 4.746094 -3.738281 4.84375 -3.625 4.84375 -3.484375 C 4.84375 -1.8125 4.808594 -0.71875 4.796875 -0.25 C 4.78125 -0.113281 4.894531 0.0117188 5.046875 0.0117188 L 6.507812 0.0117188 C 6.644531 0.0117188 6.757812 -0.113281 6.757812 -0.25 C 6.734375 -0.792969 6.695312 -2.214844 6.695312 -4.40625 C 6.695312 -6.59375 6.734375 -8.003906 6.757812 -8.546875 C 6.757812 -8.683594 6.644531 -8.796875 6.507812 -8.796875 Z M 6.507812 -8.796875 "/></g></g></g><g fill="#00d4fa" fill-opacity="1"><g transform="translate(234.283767, 332.465837)"><g/></g></g><g fill="#00d4fa" fill-opacity="1"><g transform="translate(238.034239, 332.465837)"><g><path d="M 3.664062 -1.222656 C 2.617188 -1.222656 2.605469 -2.339844 2.605469 -2.644531 L 2.605469 -6.152344 C 2.605469 -6.785156 2.71875 -7.578125 3.710938 -7.578125 C 4.570312 -7.578125 4.730469 -6.820312 4.769531 -6.378906 C 4.78125 -6.253906 4.882812 -6.152344 5.007812 -6.152344 L 6.492188 -6.152344 C 6.644531 -6.152344 6.757812 -6.28125 6.746094 -6.417969 C 6.65625 -7.703125 5.851562 -8.910156 3.6875 -8.910156 C 1.421875 -8.910156 0.628906 -7.753906 0.628906 -6.152344 C 0.628906 -5.613281 0.679688 -5.261719 0.679688 -4.40625 C 0.679688 -3.535156 0.628906 -3.183594 0.628906 -2.644531 C 0.628906 -1.269531 1.382812 0.113281 3.6875 0.113281 C 5.839844 0.113281 6.65625 -0.917969 6.746094 -2.378906 C 6.757812 -2.53125 6.644531 -2.644531 6.507812 -2.644531 L 5.097656 -2.644531 C 4.972656 -2.644531 4.871094 -2.542969 4.859375 -2.417969 C 4.808594 -1.835938 4.542969 -1.222656 3.664062 -1.222656 Z M 3.664062 -1.222656 "/></g></g></g><g fill="#00d4fa" fill-opacity="1"><g transform="translate(245.421929, 332.465837)"><g><path d="M 6.757812 -6.152344 C 6.757812 -7.527344 6.003906 -8.910156 3.6875 -8.910156 C 1.421875 -8.910156 0.628906 -7.753906 0.628906 -6.152344 C 0.628906 -5.613281 0.679688 -5.261719 0.679688 -4.390625 C 0.679688 -3.535156 0.628906 -3.183594 0.628906 -2.644531 C 0.628906 -1.257812 1.382812 0.113281 3.6875 0.113281 C 5.964844 0.113281 6.757812 -1.042969 6.757812 -2.644531 C 6.757812 -3.183594 6.695312 -3.535156 6.695312 -4.390625 C 6.695312 -5.261719 6.757812 -5.613281 6.757812 -6.152344 Z M 3.664062 -1.222656 C 2.617188 -1.222656 2.605469 -2.339844 2.605469 -2.644531 L 2.605469 -6.152344 C 2.605469 -6.785156 2.71875 -7.578125 3.710938 -7.578125 C 4.757812 -7.578125 4.769531 -6.457031 4.769531 -6.152344 L 4.769531 -2.644531 C 4.769531 -2.011719 4.667969 -1.222656 3.664062 -1.222656 Z M 3.664062 -1.222656 "/></g></g></g><g fill="#00d4fa" fill-opacity="1"><g transform="translate(252.822198, 332.465837)"><g><path d="M 2.578125 -0.25 C 2.566406 -0.792969 2.53125 -2.214844 2.53125 -4.40625 C 2.53125 -6.59375 2.566406 -8.003906 2.578125 -8.546875 C 2.59375 -8.683594 2.480469 -8.808594 2.339844 -8.808594 L 0.867188 -8.808594 C 0.730469 -8.808594 0.617188 -8.683594 0.628906 -8.546875 C 0.640625 -8.003906 0.679688 -6.59375 0.679688 -4.40625 C 0.679688 -2.214844 0.640625 -0.792969 0.628906 -0.25 C 0.617188 -0.113281 0.730469 0 0.867188 0 L 2.339844 0 C 2.480469 0 2.59375 -0.113281 2.578125 -0.25 Z M 2.578125 -0.25 "/></g></g></g><g fill="#00d4fa" fill-opacity="1"><g transform="translate(256.044085, 332.465837)"><g><path d="M 6.820312 -4.40625 C 6.820312 -6.59375 6.871094 -8.003906 6.882812 -8.546875 C 6.898438 -8.683594 6.785156 -8.808594 6.632812 -8.808594 L 5.171875 -8.808594 C 5.035156 -8.808594 4.921875 -8.683594 4.921875 -8.546875 C 4.945312 -8.003906 4.984375 -6.59375 4.984375 -4.40625 C 4.984375 -3.761719 4.984375 -3.183594 4.972656 -2.679688 C 4.972656 -2.554688 4.796875 -2.53125 4.769531 -2.65625 C 4.667969 -3.171875 4.570312 -3.75 4.457031 -4.40625 C 4.050781 -6.644531 3.839844 -8.078125 3.761719 -8.597656 C 3.75 -8.710938 3.636719 -8.796875 3.523438 -8.796875 L 2.59375 -8.796875 L 2.59375 -8.808594 L 0.867188 -8.808594 C 0.730469 -8.808594 0.617188 -8.683594 0.628906 -8.546875 C 0.640625 -8.003906 0.679688 -6.59375 0.679688 -4.40625 C 0.679688 -2.214844 0.640625 -0.792969 0.628906 -0.25 C 0.617188 -0.113281 0.730469 0 0.867188 0 L 2.339844 0 C 2.480469 0 2.59375 -0.113281 2.578125 -0.25 C 2.566406 -0.792969 2.53125 -2.214844 2.53125 -4.40625 C 2.53125 -5.046875 2.53125 -5.613281 2.53125 -6.117188 C 2.542969 -6.242188 2.71875 -6.265625 2.742188 -6.140625 C 2.832031 -5.625 2.945312 -5.046875 3.058594 -4.40625 C 3.460938 -2.152344 3.675781 -0.71875 3.75 -0.203125 C 3.761719 -0.0898438 3.863281 0 3.988281 0 L 6.632812 0 C 6.785156 0 6.898438 -0.113281 6.882812 -0.25 C 6.871094 -0.792969 6.820312 -2.214844 6.820312 -4.40625 Z M 6.820312 -4.40625 "/></g></g></g><g fill="#00d4fa" fill-opacity="1"><g transform="translate(263.570218, 332.465837)"><g><path d="M 2.605469 -6.378906 C 2.605469 -7.011719 2.71875 -7.601562 3.710938 -7.601562 C 4.570312 -7.601562 4.730469 -6.832031 4.769531 -6.40625 C 4.78125 -6.265625 4.882812 -6.167969 5.007812 -6.167969 L 6.492188 -6.167969 C 6.644531 -6.167969 6.757812 -6.292969 6.746094 -6.445312 C 6.65625 -7.726562 5.851562 -8.9375 3.6875 -8.9375 C 1.421875 -8.9375 0.628906 -7.980469 0.628906 -6.378906 C 0.628906 -3.257812 4.859375 -4.027344 4.859375 -2.417969 C 4.859375 -1.789062 4.757812 -1.195312 3.75 -1.195312 C 2.894531 -1.195312 2.628906 -1.949219 2.605469 -2.390625 C 2.59375 -2.53125 2.492188 -2.628906 2.351562 -2.628906 L 0.867188 -2.628906 C 0.730469 -2.628906 0.617188 -2.503906 0.628906 -2.351562 C 0.71875 -1.070312 1.625 0.136719 3.777344 0.136719 C 6.054688 0.136719 6.847656 -0.816406 6.847656 -2.417969 C 6.847656 -5.574219 2.605469 -4.808594 2.605469 -6.378906 Z M 2.605469 -6.378906 "/></g></g></g></svg>